<svg class="img-fluid" id="outputsvg" xmlns="http://www.w3.org/2000/svg"
     style="transform: matrix(1, 0, 0, 1, -12.7999, 12.8); transform-origin: 50% 50%; cursor: move; max-height: none; transition: none 0s ease 0s;"
     width="1160" height="592" viewBox="0 0 11600 5920">
    <g id="l3vDPe134N6l2haveuJddm5" fill="rgb(0,0,0)" style="transform: none;">
        <g>
            <path id="p11FCzPkNL"
                  d="M4307 5552 c-36 -40 -42 -101 -21 -228 16 -98 19 -166 18 -384 -1 -146 -6 -317 -13 -380 -6 -63 -16 -167 -22 -230 -20 -223 -40 -362 -54 -383 -7 -12 -22 -73 -32 -134 -10 -62 -20 -113 -23 -113 -3 0 -17 40 -32 88 -44 143 -63 300 -78 667 -5 138 -12 288 -16 335 -6 87 -29 200 -42 210 -5 3 -21 27 -37 55 -47 81 -66 95 -129 95 -51 0 -57 -2 -71 -30 -8 -16 -15 -36 -15 -45 0 -8 -4 -15 -10 -15 -15 0 -12 -78 3 -83 9 -3 12 -63 12 -256 -1 -218 -3 -255 -16 -265 -10 -6 -19 -35 -23 -71 -11 -84 -76 -379 -85 -385 -13 -8 -41 -114 -61 -225 -10 -55 -20 -93 -23 -85 -19 50 -37 134 -37 167 0 22 -6 62 -14 89 -8 27 -19 105 -25 174 -54 590 -66 701 -80 710 -6 3 -15 37 -21 75 -25 160 -52 222 -117 271 -21 15 -39 32 -41 36 -2 4 -24 8 -48 8 -32 0 -50 -6 -65 -21 -20 -20 -21 -29 -16 -98 4 -42 11 -107 16 -146 16 -108 13 -455 -4 -581 -19 -145 -53 -315 -65 -330 -6 -6 -19 -51 -30 -100 -23 -108 -61 -222 -75 -226 -5 -2 -12 11 -15 27 -4 17 -14 42 -23 55 -33 52 -40 120 -42 450 -2 290 -5 336 -24 425 -12 55 -26 101 -31 103 -5 2 -18 31 -29 65 -26 75 -43 101 -101 153 -70 62 -94 74 -149 74 -46 0 -51 -2 -57 -26 -11 -44 5 -145 36 -226 17 -42 30 -84 30 -92 0 -8 5 -16 11 -18 16 -5 27 -76 35 -229 9 -180 2 -221 -44 -266 l-36 -35 -26 30 c-60 72 -91 122 -121 202 -19 47 -39 88 -45 92 -15 10 -19 27 -43 193 -21 147 -46 245 -61 245 -5 0 -12 10 -16 23 -3 12 -17 46 -31 75 -29 62 -61 82 -131 82 -55 0 -62 -8 -82 -95 -9 -41 -7 -91 10 -255 26 -256 42 -352 80 -471 35 -108 55 -257 45 -341 -6 -46 -14 -67 -41 -99 -35 -42 -39 -52 -52 -129 l-8 -45 -17 68 c-10 37 -26 91 -37 120 -13 34 -20 77 -20 121 0 197 -68 616 -99 616 -5 0 -18 26 -30 58 -11 31 -31 73 -43 93 -81 131 -96 142 -182 137 -46 -3 -50 -5 -58 -33 -18 -61 22 -285 55 -306 23 -16 54 -293 37 -344 -14 -43 -25 -44 -46 -2 -10 17 -25 43 -35 57 -11 14 -34 71 -53 128 -19 56 -41 108 -48 116 -8 7 -29 79 -48 160 -19 80 -37 146 -42 146 -4 0 -12 19 -18 43 -6 23 -18 57 -27 75 -16 31 -18 32 -78 32 l-61 0 -18 -41 c-15 -33 -17 -57 -13 -118 10 -148 39 -366 49 -372 6 -4 14 -46 19 -94 5 -48 14 -115 19 -149 6 -33 13 -124 17 -201 5 -116 3 -146 -10 -170 -8 -17 -20 -55 -25 -85 -21 -111 -21 -111 -87 23 -33 67 -63 124 -67 127 -15 12 -29 67 -59 242 -17 101 -35 185 -40 188 -4 3 -16 35 -25 70 -22 86 -42 125 -108 202 -71 83 -125 110 -226 115 -134 7 -186 -43 -176 -172 5 -73 49 -234 66 -245 5 -3 19 -42 30 -86 21 -78 21 -81 3 -234 -14 -120 -22 -161 -39 -185 -39 -58 -44 -91 -44 -295 0 -188 1 -199 23 -231 45 -66 76 -79 201 -79 61 0 126 4 144 9 27 8 39 6 65 -9 44 -27 142 -27 200 0 44 21 127 95 127 113 0 6 13 -9 30 -31 49 -68 76 -77 220 -77 82 0 133 5 148 13 20 11 32 9 90 -14 53 -22 83 -28 147 -28 92 -1 135 17 172 73 l22 33 12 -26 c19 -40 101 -75 209 -89 73 -9 94 -9 98 1 2 6 16 12 31 12 15 0 53 8 84 19 l56 18 58 -30 c55 -29 64 -31 183 -31 l126 -1 43 34 c46 36 71 81 71 128 l1 28 21 -30 c33 -45 96 -102 133 -120 19 -8 37 -20 40 -25 3 -6 47 -10 96 -10 87 0 93 1 157 39 43 25 86 63 122 104 l54 65 13 -25 c30 -59 136 -154 203 -184 41 -18 124 -22 177 -10 63 15 161 103 198 176 13 28 25 44 25 37 0 -23 92 -112 149 -144 31 -17 64 -38 75 -47 14 -13 42 -16 127 -16 l108 0 45 44 c24 24 52 61 62 82 l17 40 16 -48 c19 -56 60 -83 126 -83 22 0 75 -7 118 -15 43 -8 117 -15 163 -15 71 0 89 3 114 22 l30 22 23 -22 c21 -20 37 -22 213 -28 l189 -7 32 27 33 28 32 -28 33 -27 190 7 c169 6 192 9 211 27 26 24 36 24 59 -1 16 -17 30 -20 104 -19 47 0 113 5 146 10 33 5 92 13 132 18 91 11 117 27 134 86 l13 45 19 -37 c24 -46 61 -88 105 -115 29 -18 45 -20 127 -16 65 3 99 9 112 19 10 9 41 28 68 44 76 43 122 84 141 123 l16 35 14 -32 c21 -50 88 -125 144 -161 82 -53 210 -51 282 3 62 46 129 111 149 144 l21 33 21 -27 c45 -60 85 -96 149 -134 63 -37 70 -39 153 -39 67 0 92 4 113 18 15 11 45 31 68 46 22 14 56 47 74 72 l34 45 12 -53 c8 -33 21 -59 36 -71 12 -10 34 -28 48 -40 23 -20 35 -22 150 -21 120 0 128 2 184 31 l60 31 80 -29 c81 -29 196 -41 196 -19 0 6 21 10 46 10 60 0 137 41 158 84 l15 31 10 -27 c6 -15 29 -41 52 -58 39 -28 48 -30 125 -30 63 0 99 6 152 25 61 22 73 23 103 13 39 -14 229 -17 274 -5 17 5 53 33 81 63 l50 55 30 -42 c16 -23 52 -57 81 -76 47 -30 59 -33 126 -33 60 0 79 4 100 21 23 17 32 19 64 10 21 -6 84 -11 141 -11 133 0 171 17 207 92 29 60 31 107 14 319 -7 92 -16 146 -29 174 -10 22 -24 81 -31 130 -6 50 -18 112 -25 139 -17 59 -18 123 -3 128 10 3 79 228 79 260 0 10 6 18 14 18 28 0 38 167 11 194 -8 8 -15 18 -15 23 0 5 -15 18 -32 28 -26 16 -51 20 -113 20 -68 0 -89 -5 -138 -29 -60 -29 -121 -94 -146 -155 -8 -17 -18 -31 -23 -31 -20 0 -55 -120 -78 -272 -6 -37 -16 -79 -24 -95 -8 -15 -24 -75 -36 -133 -23 -110 -38 -147 -76 -193 -23 -28 -53 -116 -71 -207 l-9 -45 -13 90 c-8 50 -17 92 -20 95 -4 3 -18 34 -31 70 -20 52 -24 82 -23 150 2 133 24 320 40 335 17 17 63 418 62 540 -1 132 -5 139 -64 143 -27 2 -58 1 -70 -2 -26 -7 -51 -57 -60 -122 -4 -27 -13 -53 -19 -59 -7 -5 -28 -70 -46 -144 -19 -74 -39 -139 -46 -145 -6 -7 -24 -48 -39 -91 -36 -103 -68 -174 -94 -205 -16 -21 -22 -23 -33 -12 -19 19 -14 263 5 277 8 6 20 35 26 65 7 30 21 84 31 119 14 42 20 92 20 151 0 98 -1 100 -71 100 -57 0 -92 -22 -130 -81 -19 -29 -42 -64 -52 -78 -9 -14 -27 -57 -39 -96 -12 -38 -28 -75 -35 -81 -30 -26 -68 -269 -78 -509 -6 -125 -20 -215 -34 -215 -4 0 -15 -31 -26 -70 -19 -71 -35 -91 -35 -45 0 43 -31 119 -60 146 -23 22 -29 38 -35 92 -8 74 7 236 23 246 6 4 18 40 27 81 36 169 55 273 55 305 0 24 5 35 14 35 18 0 31 125 30 305 0 126 -1 131 -26 158 -34 36 -103 38 -150 5 -31 -23 -88 -127 -88 -160 0 -10 -6 -18 -14 -18 -15 0 -38 -85 -51 -185 -16 -125 -38 -231 -50 -240 -7 -6 -27 -47 -44 -92 -18 -45 -46 -98 -62 -120 -17 -21 -37 -50 -45 -65 -8 -16 -23 -28 -33 -28 -27 0 -79 63 -87 107 -11 60 4 336 19 348 7 6 18 35 25 65 17 74 63 200 73 200 5 0 9 29 9 65 0 37 -4 65 -10 65 -5 0 -10 7 -10 15 0 22 -82 20 -128 -4 -20 -10 -62 -46 -94 -78 -45 -48 -60 -73 -77 -128 -12 -38 -26 -72 -32 -75 -5 -4 -19 -49 -31 -101 -18 -81 -22 -144 -28 -454 -7 -356 -7 -361 -34 -430 -14 -38 -26 -72 -26 -74 0 -2 -6 2 -14 9 -19 15 -61 143 -81 245 -8 44 -22 91 -29 105 -8 14 -23 73 -34 130 -41 214 -59 473 -42 635 20 204 24 353 10 370 -15 18 -94 20 -117 3 -51 -42 -97 -94 -113 -131 -20 -44 -50 -196 -50 -249 0 -16 -6 -31 -14 -34 -16 -6 -30 -133 -86 -763 -10 -122 -59 -341 -70 -319 -4 7 -10 35 -14 63 -10 80 -57 268 -73 293 -18 29 -58 222 -75 357 -6 55 -15 102 -19 105 -4 3 -10 99 -12 213 -4 173 -3 207 9 207 11 0 14 16 14 64 0 35 -3 66 -7 68 -5 2 -16 17 -25 33 -15 26 -23 30 -67 33 -28 2 -59 -2 -70 -8 -26 -13 -78 -88 -87 -124 -3 -15 -13 -30 -20 -33 -27 -10 -54 -240 -54 -460 0 -169 -38 -665 -51 -674 -6 -3 -23 -42 -38 -87 l-27 -81 -12 92 c-7 51 -26 144 -41 207 -65 259 -111 993 -79 1248 7 53 13 143 13 198 0 129 -10 144 -96 144 -54 0 -61 -3 -95 -37 -20 -21 -43 -51 -52 -68 -19 -37 -52 -161 -52 -197 0 -17 -5 -28 -14 -28 -10 0 -19 -28 -31 -92 -26 -139 -55 -375 -55 -445 0 -41 -5 -67 -15 -77 -12 -11 -20 -80 -35 -303 -11 -158 -20 -327 -20 -374 0 -47 -9 -128 -20 -180 -11 -52 -20 -98 -21 -104 0 -5 -7 17 -15 50 -8 33 -23 78 -33 100 -63 139 -103 771 -65 1040 21 152 28 256 20 298 -5 29 -12 37 -37 42 -79 18 -164 -25 -202 -101 -21 -41 -45 -145 -53 -230 -3 -38 -12 -74 -20 -80 -17 -14 -45 -298 -69 -699 -11 -181 -26 -309 -37 -316 -6 -4 -13 -33 -17 -65 -3 -33 -9 -54 -12 -49 -19 30 -50 291 -64 540 -19 353 -19 453 2 590 21 136 23 246 4 269 -9 11 -30 16 -66 16 -46 0 -58 -4 -83 -29 -16 -16 -35 -43 -42 -60 -7 -17 -16 -31 -21 -31 -23 0 -70 -229 -84 -414 -4 -50 -13 -99 -20 -110 -9 -14 -17 -98 -25 -261 -6 -132 -19 -289 -30 -350 -10 -60 -23 -143 -30 -183 -12 -75 -30 -89 -30 -22 0 21 -5 51 -11 67 -28 72 -49 221 -59 433 -14 284 -35 511 -49 519 -5 4 -17 54 -26 111 -22 151 -46 215 -103 278 -46 49 -51 52 -99 52 -76 0 -87 -17 -80 -127 4 -48 11 -110 16 -138 13 -68 14 -494 0 -685 -6 -85 -19 -220 -30 -300 -10 -80 -19 -163 -20 -185 0 -31 -2 -36 -9 -20 -5 11 -9 37 -9 57 -1 20 -10 74 -21 120 -11 45 -24 150 -30 233 -45 622 -70 846 -95 872 -8 8 -15 27 -15 41 0 48 -36 160 -63 195 -36 47 -89 71 -145 64 -67 -7 -74 -23 -69 -137 5 -108 28 -290 36 -290 12 0 4 -511 -8 -523 -6 -6 -11 -27 -11 -47 0 -121 -59 -429 -89 -469 l-18 -23 -16 41 c-18 45 -22 82 -37 371 -17 332 -41 603 -56 634 -7 15 -18 76 -24 135 -10 90 -20 154 -57 364 -3 15 -9 27 -14 27 -4 0 -13 19 -20 43 -37 135 -53 172 -91 209 -37 35 -44 38 -97 38 -43 0 -62 -5 -74 -18z m139 -153 c7 -15 25 -75 40 -135 15 -60 33 -114 39 -120 12 -12 44 -214 70 -438 8 -71 19 -134 24 -140 8 -10 42 -451 41 -524 -1 -16 -1 -16 -10 -1 -5 9 -38 35 -73 58 -60 39 -67 41 -138 41 -46 0 -80 -5 -88 -12 -11 -11 -12 3 -6 77 3 50 10 141 15 204 5 64 14 117 20 121 31 19 32 790 1 809 -17 11 -24 86 -11 111 l12 22 25 -24 c14 -12 31 -35 39 -49z m2806 30 c1 -13 -5 -87 -13 -164 -25 -251 -14 -559 37 -1086 6 -53 4 -62 -7 -51 -8 7 -42 12 -89 12 -70 0 -79 -3 -130 -36 -30 -20 -65 -48 -77 -62 l-23 -27 5 35 c2 19 7 92 11 163 3 70 10 127 14 127 9 0 10 8 35 270 26 278 48 435 60 445 7 6 22 57 34 115 35 164 55 221 92 262 35 39 51 38 51 -3z m-3998 -464 c17 -56 42 -199 52 -292 4 -35 10 -63 14 -63 8 0 14 -48 30 -230 5 -63 16 -185 25 -270 8 -85 15 -161 15 -168 0 -8 -18 -3 -52 15 -46 24 -64 28 -140 28 -49 0 -88 3 -88 6 0 4 9 51 20 104 11 54 25 139 30 189 6 49 16 94 23 98 9 5 13 74 16 252 2 201 0 253 -13 293 -8 26 -18 77 -21 113 l-6 65 40 -45 c25 -27 47 -65 55 -95z m3395 67 c-4 -26 -8 -68 -8 -94 -1 -30 -7 -53 -18 -64 -16 -15 -18 -44 -18 -268 0 -185 4 -280 17 -361 9 -60 19 -136 22 -167 l6 -58 -32 0 c-53 0 -139 -27 -165 -52 l-24 -22 6 94 c4 52 11 147 16 210 5 63 9 143 9 177 0 38 5 67 13 75 8 8 19 61 26 128 15 131 46 316 61 355 14 37 83 117 90 104 4 -5 3 -31 -1 -57z m1785 -92 c-24 -260 -7 -599 42 -830 13 -63 24 -117 24 -120 0 -3 -26 -3 -57 -1 -77 4 -156 -15 -194 -47 l-31 -26 7 85 c3 46 13 152 21 234 7 83 14 176 14 208 0 40 4 59 14 63 9 4 16 31 21 82 10 113 42 320 59 375 12 41 82 144 91 135 2 -2 -3 -73 -11 -158z m-3390 75 c18 -37 41 -134 57 -245 6 -47 16 -88 22 -91 11 -8 21 -103 41 -399 9 -124 18 -250 21 -280 l6 -54 -23 21 c-33 31 -71 43 -139 43 -59 0 -59 0 -59 29 0 16 5 31 11 33 15 5 39 307 39 498 0 163 -23 419 -38 429 -11 7 -23 77 -15 85 9 9 61 -37 77 -69z m-1186 -8 c11 -12 28 -39 37 -60 8 -20 19 -37 24 -37 19 0 31 -111 41 -360 5 -140 15 -326 22 -412 6 -87 10 -160 7 -162 -3 -3 -23 1 -44 9 -23 8 -79 14 -131 15 l-91 0 25 123 c14 67 30 125 35 128 5 3 16 53 25 110 12 77 16 177 17 387 0 155 3 282 6 282 3 0 15 -10 27 -23z m3937 -275 c0 -257 2 -303 17 -342 10 -25 24 -90 33 -145 8 -55 23 -132 34 -171 l18 -72 -106 -4 c-72 -3 -116 -9 -136 -20 l-30 -16 18 266 c10 147 16 294 13 327 -6 68 12 257 25 265 4 3 13 27 19 53 18 81 59 151 90 156 3 1 5 -133 5 -297z m-5732 214 c14 -29 30 -69 36 -89 7 -20 16 -37 21 -37 13 0 17 -21 40 -175 20 -140 42 -234 59 -244 5 -4 18 -32 30 -64 31 -89 110 -210 152 -233 39 -22 121 -18 159 9 82 55 96 120 80 381 -6 99 -16 203 -21 230 -15 78 -29 126 -38 126 -9 0 -43 81 -37 88 3 2 25 -15 49 -37 49 -46 77 -101 103 -206 9 -39 23 -73 30 -78 18 -11 25 -117 27 -445 l2 -292 -50 -1 c-91 -2 -109 2 -169 31 -77 39 -151 41 -228 5 -36 -17 -70 -25 -109 -25 l-56 0 -6 168 c-6 175 -25 293 -56 352 -35 66 -91 472 -77 563 9 59 23 52 59 -27z m7543 28 c16 -86 -46 -526 -86 -609 -28 -59 -50 -212 -50 -352 l0 -123 -54 0 c-57 0 -113 15 -134 37 -20 19 -156 18 -176 -2 -27 -27 -96 -45 -175 -45 l-76 0 0 331 c1 301 2 332 18 344 9 7 17 19 17 27 0 25 42 181 61 225 18 41 104 141 114 131 7 -7 -23 -77 -40 -94 -27 -28 -47 -184 -52 -409 -4 -216 -4 -221 19 -260 42 -72 151 -108 216 -71 36 19 108 121 139 195 15 36 32 71 38 76 24 22 75 257 75 348 0 15 6 30 14 33 8 3 17 22 21 41 3 20 20 70 37 112 44 112 62 127 74 65z m-4093 -85 c31 -34 64 -180 88 -379 6 -52 14 -97 19 -100 7 -5 30 -291 30 -375 l0 -40 -93 0 -94 -1 5 101 c3 57 9 103 16 107 16 10 22 563 7 582 -9 10 -41 157 -41 185 0 3 11 -11 24 -30 13 -19 31 -41 39 -50z m634 -32 c-6 -53 -15 -97 -19 -97 -11 0 -10 -343 1 -432 5 -40 12 -131 15 -203 l6 -130 -84 0 -84 0 -6 35 c-9 55 -7 160 3 160 5 0 12 39 16 88 21 284 58 520 86 553 11 12 19 27 19 32 0 13 51 100 55 95 2 -2 -1 -47 -8 -101z m4304 -128 c-6 -55 -11 -120 -11 -144 0 -32 -4 -45 -14 -45 -10 0 -16 -22 -21 -77 -4 -43 -13 -109 -21 -148 -7 -38 -19 -154 -26 -256 l-12 -187 -54 -6 c-49 -6 -60 -3 -108 24 -64 36 -113 39 -181 9 -42 -18 -53 -19 -85 -8 -21 7 -38 16 -38 21 0 4 -11 8 -24 8 -30 0 -34 21 -25 165 10 172 31 315 46 315 7 0 13 7 13 15 0 32 72 236 89 253 10 9 26 33 36 52 24 47 55 86 55 69 0 -24 -30 -113 -40 -119 -13 -8 -37 -110 -50 -210 -13 -109 -13 -306 0 -331 25 -45 132 -66 178 -33 26 18 60 82 92 174 13 36 29 70 36 76 13 11 57 150 69 220 4 22 13 44 21 50 10 8 62 206 64 243 0 3 5 -2 11 -12 8 -13 7 -48 0 -118z m-9251 29 c7 -41 17 -68 25 -68 7 0 15 -19 19 -47 8 -63 61 -244 73 -252 6 -3 18 -31 28 -61 22 -68 57 -153 66 -160 3 -3 14 -19 23 -37 21 -42 43 -53 105 -53 38 0 56 6 78 24 26 23 28 28 31 130 6 158 -32 425 -64 451 -13 11 -38 94 -31 101 12 12 94 -122 126 -206 20 -52 41 -101 48 -108 7 -7 13 -15 13 -17 0 -3 9 -60 19 -127 11 -68 25 -183 32 -256 14 -153 16 -148 -72 -177 -56 -18 -57 -18 -93 3 -55 33 -123 30 -190 -8 -48 -28 -60 -30 -106 -24 -28 4 -53 12 -55 18 -2 6 -9 81 -14 166 -6 85 -20 214 -30 286 -11 73 -25 178 -31 235 -6 57 -16 106 -21 109 -13 9 -23 93 -14 136 9 48 18 33 35 -58z m-595 -171 c33 -22 112 -114 144 -168 11 -19 29 -72 40 -117 11 -46 24 -89 29 -95 5 -7 15 -46 22 -87 22 -136 39 -225 45 -240 4 -12 -10 -18 -72 -28 -42 -6 -79 -16 -82 -21 -9 -13 -82 -34 -114 -33 -17 0 -35 6 -40 11 -6 6 -20 11 -30 11 -18 0 -19 5 -11 83 17 161 12 313 -16 407 -13 47 -31 93 -40 102 -9 10 -22 47 -29 82 -15 73 -7 97 36 120 30 15 66 7 118 -27z m10587 -12 c8 -19 4 -48 -25 -149 -20 -69 -44 -138 -54 -153 -33 -50 -26 -392 8 -414 17 -10 2 -27 -38 -44 -48 -20 -99 -19 -137 4 -33 20 -118 41 -168 41 -26 0 -29 3 -25 23 3 12 9 40 13 62 4 22 11 43 16 46 6 4 25 91 44 195 27 145 39 192 54 206 11 11 30 38 41 61 27 51 111 132 163 157 36 17 43 17 68 4 16 -8 34 -26 40 -39z m-6693 -555 c120 -60 206 -262 206 -475 -1 -90 -4 -108 -33 -176 -31 -71 -68 -112 -139 -153 -21 -12 -165 72 -224 130 -73 72 -86 117 -70 242 22 161 33 222 41 222 4 0 13 24 20 53 18 77 46 129 82 154 41 27 69 28 117 3z m2749 -15 c22 -19 44 -52 52 -75 7 -22 16 -40 20 -40 16 0 61 -281 62 -380 0 -31 -7 -72 -15 -91 -21 -51 -101 -124 -177 -161 -36 -18 -66 -36 -68 -40 -8 -19 -41 -5 -90 38 -113 99 -147 246 -102 447 33 148 108 274 189 317 54 29 85 25 129 -15z m-3346 -111 c44 -23 117 -99 134 -140 25 -60 64 -217 64 -259 0 -82 -79 -201 -172 -261 -21 -13 -44 -24 -52 -24 -26 0 -87 43 -163 114 -89 84 -98 110 -89 244 11 159 30 237 71 286 19 24 50 48 68 54 39 13 98 7 139 -14z m1168 11 c37 -19 90 -84 130 -160 28 -53 33 -75 42 -185 12 -153 6 -298 -13 -312 -8 -5 -75 -7 -163 -3 -226 9 -240 23 -211 230 9 66 20 125 26 131 5 6 20 54 33 106 28 112 48 155 84 185 32 27 35 27 72 8z m1559 -13 c16 -16 37 -56 50 -97 12 -39 29 -82 37 -97 13 -24 43 -180 58 -303 8 -60 -15 -113 -56 -133 -15 -7 -88 -15 -171 -19 -135 -6 -145 -5 -155 13 -14 27 -27 294 -14 294 5 0 13 32 16 72 11 106 37 163 106 236 67 70 88 75 129 34z m1234 14 c42 -18 82 -62 95 -106 16 -50 42 -238 42 -296 -1 -67 -30 -126 -93 -187 -48 -47 -142 -107 -166 -107 -21 0 -102 63 -145 113 -49 55 -76 119 -76 177 0 46 44 225 60 242 6 7 21 31 33 52 27 47 81 93 133 111 50 18 77 18 117 1z m-2271 -13 c43 -25 73 -93 92 -208 10 -55 24 -128 33 -162 11 -46 13 -87 8 -165 -9 -128 -22 -148 -97 -148 -74 0 -191 21 -210 38 -23 19 -24 112 -3 306 27 250 44 309 103 341 35 18 38 18 74 -2z m508 2 c17 -9 38 -32 48 -53 19 -37 46 -186 58 -319 4 -40 11 -73 16 -73 15 0 -1 -182 -17 -199 -14 -14 -158 -40 -222 -41 -20 0 -43 9 -58 22 -24 21 -25 27 -25 128 0 102 20 296 41 390 15 67 82 159 117 160 7 0 26 -7 42 -15z m-2793 -51 c108 -87 139 -148 163 -312 13 -93 2 -124 -67 -195 -94 -96 -157 -119 -231 -87 -62 28 -115 80 -163 162 -43 73 -49 115 -25 170 8 18 27 74 41 123 24 80 33 96 81 144 51 51 55 53 97 49 33 -4 58 -17 104 -54z m5199 5 c32 -32 50 -61 70 -118 14 -42 30 -85 35 -96 27 -57 36 -120 23 -157 -28 -80 -109 -185 -168 -215 -87 -45 -146 -31 -241 58 -89 84 -99 110 -86 212 15 104 27 158 39 166 5 3 16 20 25 36 17 34 112 126 154 150 47 26 99 13 149 -36z m-6024 -30 c39 -16 84 -23 167 -27 l113 -5 19 -31 c10 -17 19 -41 19 -53 0 -12 5 -23 10 -25 28 -9 52 -305 30 -363 -11 -28 -58 -74 -76 -75 -6 0 -17 -7 -24 -15 -18 -22 -44 -19 -141 20 -107 42 -183 46 -274 14 -112 -39 -237 -11 -280 62 -17 29 -20 51 -19 154 2 160 23 258 66 302 l32 33 102 0 c67 0 113 5 135 15 46 19 59 19 121 -6z m6771 6 c24 -10 70 -15 133 -15 147 0 168 -24 195 -224 29 -215 5 -295 -98 -332 -55 -19 -131 -17 -198 6 -80 27 -159 26 -248 -5 -39 -14 -73 -30 -75 -35 -11 -32 -131 15 -173 68 -18 24 -20 37 -17 159 2 73 6 133 10 133 3 0 9 19 13 43 13 86 35 146 58 159 12 6 47 11 77 9 69 -3 184 15 219 34 34 18 60 18 104 0z m-7680 -20 c45 -19 132 -19 184 -1 58 20 67 8 102 -130 42 -165 47 -215 26 -294 -21 -81 -34 -103 -79 -124 -32 -15 -41 -15 -85 -2 -26 8 -62 21 -79 30 -39 20 -117 20 -173 0 -58 -20 -137 -21 -177 0 -39 20 -78 77 -90 133 -15 68 10 256 43 328 l15 30 92 0 c77 0 100 4 133 22 48 27 44 26 88 8z m8290 0 c48 -20 138 -19 182 2 34 16 36 16 87 -8 29 -13 55 -27 56 -31 5 -12 100 -10 107 2 3 6 19 10 34 10 25 0 32 -7 50 -49 11 -27 21 -57 21 -66 0 -9 6 -28 14 -43 30 -60 26 -242 -5 -242 -5 0 -9 -5 -9 -10 0 -19 -44 -72 -72 -86 -35 -18 -125 -18 -178 1 -55 19 -121 19 -168 -1 -20 -9 -59 -22 -87 -30 -46 -12 -52 -12 -89 9 -59 32 -70 63 -74 193 -3 91 0 127 19 195 12 46 27 91 33 99 7 8 17 27 24 43 14 32 10 31 55 12z m1012 -70 c64 -25 78 -27 170 -21 95 5 101 4 114 -16 14 -22 30 -163 31 -263 0 -139 -95 -207 -225 -160 -60 22 -143 19 -184 -6 -42 -25 -64 -20 -120 28 -69 58 -75 82 -51 205 28 144 44 187 88 235 44 48 46 48 177 -2z m-9942 23 c48 -37 140 -321 122 -378 -9 -28 -103 -117 -132 -124 -14 -4 -39 2 -63 14 -48 24 -114 26 -181 4 -31 -11 -67 -15 -96 -11 -40 4 -54 12 -90 50 l-43 46 0 123 c0 136 10 186 41 214 17 16 37 19 132 19 99 0 119 3 172 27 67 29 113 34 138 16z"></path>
            <path id="pnUpw0qrt"
                  d="M4175 3013 c-80 -18 -100 -28 -155 -80 -34 -31 -70 -74 -81 -95 -18 -35 -39 -51 -39 -29 0 18 -127 139 -167 160 -33 17 -60 21 -128 21 -133 0 -186 -32 -257 -153 l-41 -71 -41 46 c-45 49 -138 127 -189 158 -24 15 -50 20 -108 20 -99 0 -161 -29 -219 -105 l-42 -54 -56 56 c-71 69 -106 84 -207 90 -69 5 -88 2 -134 -17 -48 -21 -57 -22 -95 -11 -52 17 -148 25 -192 17 -36 -7 -139 -94 -149 -127 -8 -24 -25 -25 -25 -1 0 31 -52 99 -93 123 -34 19 -56 22 -141 23 -110 0 -189 -19 -221 -54 -22 -24 -32 -25 -51 -5 -11 11 -37 15 -93 15 l-78 0 -40 -43 c-22 -24 -45 -52 -51 -62 -6 -11 -12 -18 -14 -15 -2 3 -18 35 -36 71 -39 78 -72 99 -161 99 -46 0 -71 -7 -115 -30 l-56 -29 -53 24 c-31 15 -70 25 -98 25 -49 0 -109 -17 -109 -30 0 -5 -11 -21 -25 -36 -76 -82 -85 -362 -15 -476 33 -53 61 -175 80 -344 11 -97 11 -105 -13 -180 -14 -43 -28 -95 -32 -114 -4 -19 -13 -44 -21 -55 -29 -46 -44 -214 -24 -272 12 -33 56 -63 92 -63 14 0 35 -11 48 -25 19 -21 33 -25 77 -25 72 0 112 19 157 73 53 65 64 110 85 336 10 112 23 206 28 209 6 4 18 48 27 97 24 126 67 289 79 297 6 3 18 25 27 48 18 45 33 55 38 24 2 -17 18 -52 73 -164 41 -84 56 -325 29 -470 -7 -41 -14 -139 -14 -217 -1 -129 1 -144 20 -170 17 -23 30 -29 68 -31 45 -3 46 -4 46 -36 0 -46 26 -66 87 -66 50 0 83 19 83 49 0 8 5 9 19 1 55 -29 144 19 191 102 13 24 32 54 42 68 43 59 77 303 78 547 0 51 4 83 11 85 7 2 13 54 17 143 4 127 7 143 28 171 13 17 24 37 25 45 0 8 7 -8 16 -35 8 -28 32 -70 54 -94 26 -31 45 -67 60 -116 12 -39 28 -84 34 -101 27 -66 25 -233 -4 -385 -25 -127 -61 -372 -61 -416 0 -30 7 -59 21 -80 20 -32 24 -34 79 -34 52 0 61 3 83 29 20 24 26 45 31 108 8 83 31 152 47 136 19 -19 22 -136 5 -192 -9 -30 -16 -85 -16 -123 0 -61 2 -69 25 -84 32 -21 105 -13 120 12 6 9 22 35 37 57 15 23 35 70 45 104 18 65 33 82 33 39 0 -54 96 -87 147 -51 42 29 48 81 46 365 -1 146 -8 361 -16 478 l-14 213 23 57 c13 31 24 62 24 68 0 6 7 17 15 24 13 11 18 10 30 -6 22 -30 73 -184 81 -243 3 -30 12 -68 19 -85 28 -67 55 -471 55 -819 l0 -249 34 -34 c60 -60 136 -42 162 39 4 12 12 26 19 32 23 19 54 175 74 374 6 52 15 97 21 101 12 7 32 165 55 440 28 330 32 352 59 406 14 29 26 58 27 65 1 20 45 -168 64 -276 9 -49 23 -106 30 -126 17 -44 32 -188 44 -399 8 -167 9 -163 -16 -417 -13 -137 -14 -184 -4 -229 16 -82 30 -94 112 -94 66 0 68 1 98 37 50 60 59 91 66 213 9 155 51 461 64 470 18 11 42 226 47 430 6 207 15 259 60 312 12 15 24 33 27 40 8 24 20 -1 44 -99 21 -85 24 -119 23 -253 -1 -199 18 -502 35 -560 8 -25 26 -146 41 -270 26 -219 28 -273 21 -586 -2 -58 2 -76 17 -93 25 -28 88 -29 115 -2 20 20 61 105 61 126 0 7 6 15 14 18 20 8 34 109 46 332 5 105 12 210 15 235 3 25 10 121 16 215 6 95 15 172 21 176 5 4 18 94 29 200 10 107 26 246 34 309 9 63 18 130 20 149 2 19 9 37 14 40 5 3 12 23 16 44 18 92 39 13 29 -104 -5 -52 -4 -73 5 -79 19 -11 29 -460 11 -460 -16 0 -6 -382 16 -570 17 -151 36 -211 81 -268 31 -38 39 -42 78 -42 36 0 47 5 70 31 l26 32 -7 201 c-5 176 -3 221 16 361 12 88 28 205 35 259 7 54 18 102 24 106 6 3 20 69 30 146 10 76 24 153 29 169 6 17 16 66 22 110 6 44 15 81 20 83 5 2 12 20 16 39 l7 36 19 -36 c19 -39 72 -249 84 -335 3 -29 10 -52 14 -52 4 0 10 -18 14 -39 11 -70 55 -524 66 -672 20 -299 40 -491 52 -517 12 -24 19 -27 70 -30 l57 -3 60 73 c75 90 88 130 102 308 17 224 26 302 37 309 11 6 17 44 52 331 31 254 43 330 52 330 4 0 8 10 8 23 0 43 70 320 92 364 31 62 41 46 87 -135 21 -83 43 -157 48 -164 6 -7 14 -33 17 -58 15 -110 58 -460 63 -510 3 -30 10 -60 14 -66 14 -17 38 -193 54 -391 8 -98 20 -194 26 -213 15 -41 68 -121 112 -167 27 -29 37 -33 83 -33 29 0 56 5 62 13 28 35 44 139 53 337 7 181 30 475 58 758 5 51 16 111 24 135 8 23 21 74 27 112 20 109 59 258 71 265 5 4 14 20 18 36 l8 29 11 -26 c6 -15 16 -64 22 -110 7 -46 20 -111 30 -144 9 -33 21 -96 25 -140 3 -44 13 -90 20 -101 8 -12 19 -59 25 -105 6 -46 22 -160 37 -254 26 -173 32 -307 22 -530 -4 -105 -3 -111 20 -137 20 -23 33 -28 69 -28 79 0 129 77 152 235 29 207 35 344 32 798 -1 309 1 467 8 467 5 0 10 12 11 28 1 24 2 23 11 -10 6 -21 14 -38 18 -38 4 0 11 -24 15 -52 3 -29 12 -102 20 -163 8 -60 21 -184 30 -275 9 -91 23 -194 31 -229 15 -64 19 -111 49 -576 9 -132 20 -266 26 -298 13 -75 83 -205 117 -218 48 -18 81 -7 104 33 21 36 21 41 8 148 -14 120 -9 269 15 450 8 58 19 154 25 215 6 60 16 112 22 116 16 10 27 192 28 449 0 214 2 244 24 335 39 159 36 155 74 96 53 -81 60 -117 66 -341 5 -204 26 -397 44 -409 5 -3 12 -24 16 -46 18 -111 37 -275 47 -404 11 -157 21 -189 73 -240 31 -31 36 -32 102 -29 l69 3 20 40 c11 22 23 41 28 43 10 5 9 82 -2 82 -4 0 -11 44 -14 97 -4 54 -11 150 -17 213 -14 155 14 624 38 639 5 3 13 29 17 56 7 45 15 85 60 293 7 35 15 66 18 68 2 2 15 -27 29 -64 26 -67 37 -134 58 -377 23 -266 42 -422 55 -455 7 -20 21 -94 30 -165 30 -240 49 -307 104 -382 27 -38 36 -43 70 -43 45 0 83 26 99 67 6 17 13 169 16 383 5 352 25 657 44 669 5 3 15 42 21 86 12 82 65 250 86 273 15 17 33 -9 65 -98 l23 -65 -13 -237 c-18 -333 -19 -712 -2 -760 17 -47 46 -68 93 -68 43 0 89 37 89 72 0 35 15 9 40 -69 12 -40 26 -73 30 -73 5 0 17 -17 27 -38 18 -36 19 -37 81 -40 51 -2 62 0 62 13 0 8 5 15 10 15 13 0 13 127 0 132 -17 5 -25 214 -10 244 14 25 14 25 27 -23 7 -26 17 -81 23 -121 6 -45 18 -85 31 -103 19 -27 25 -29 82 -29 55 1 64 4 81 27 10 14 21 44 23 68 6 45 -38 338 -63 420 -19 66 -24 393 -6 404 7 4 19 33 27 64 19 73 47 128 85 167 16 16 34 48 40 71 l11 41 29 -45 c26 -42 28 -53 33 -178 3 -74 10 -181 16 -239 5 -58 14 -163 21 -235 6 -71 18 -157 26 -190 18 -71 91 -198 138 -243 30 -28 41 -32 91 -32 49 0 60 -4 77 -25 16 -21 28 -25 72 -25 62 0 86 19 86 68 0 31 1 32 43 32 54 0 76 22 84 79 3 23 10 41 15 41 10 0 7 49 -10 185 -34 272 -36 295 -23 403 15 130 30 194 48 205 7 4 13 16 13 25 0 9 11 35 25 57 14 23 25 56 25 78 0 47 12 47 42 0 43 -68 47 -78 83 -218 21 -77 41 -143 46 -146 11 -7 34 -174 48 -351 14 -165 23 -201 69 -284 34 -59 46 -71 83 -86 71 -27 128 -23 169 12 22 18 47 29 66 30 79 1 102 99 65 278 -12 57 -28 114 -35 125 -8 12 -24 53 -36 90 -19 58 -21 81 -15 145 13 152 35 276 50 285 8 4 15 18 15 30 0 12 12 47 27 77 23 49 27 70 31 186 3 104 1 143 -13 190 -21 75 -49 121 -85 139 -45 23 -127 19 -188 -10 l-53 -25 -53 30 c-41 24 -65 30 -110 30 -115 0 -160 -42 -211 -195 -5 -16 -9 -12 -26 25 -11 25 -37 62 -57 83 -36 37 -37 37 -114 37 -43 0 -78 -4 -78 -9 0 -21 -43 -18 -77 5 -94 63 -305 70 -379 12 -15 -12 -39 -48 -54 -81 l-27 -59 -13 31 c-7 18 -38 53 -68 79 -54 46 -57 47 -132 50 -54 3 -87 -1 -114 -12 -50 -21 -65 -20 -117 4 -55 24 -154 26 -230 4 -42 -12 -67 -29 -112 -74 l-58 -58 -42 55 c-58 74 -118 103 -214 103 -105 0 -147 -24 -288 -165 l-60 -60 -29 59 c-33 68 -93 131 -142 152 -44 18 -194 19 -238 0 -41 -17 -106 -75 -157 -138 l-37 -47 -16 34 c-25 51 -111 141 -159 164 -49 24 -174 29 -224 10 -37 -13 -96 -72 -135 -132 -30 -47 -47 -49 -48 -6 0 8 -15 29 -32 46 -29 28 -44 33 -118 42 -102 13 -251 14 -303 2 -40 -10 -77 -43 -77 -70 0 -10 -11 -2 -30 21 -55 66 -83 72 -356 71 -158 0 -254 -5 -277 -12 -22 -7 -50 -29 -69 -53 l-32 -41 -42 48 -41 48 -174 9 c-181 9 -325 4 -394 -14 -22 -5 -55 -26 -76 -47 l-36 -36 -16 28 c-30 51 -73 60 -242 53 -205 -8 -219 -11 -251 -54 -15 -19 -30 -49 -34 -66 l-6 -31 -35 49 c-96 138 -178 184 -284 159z m72 -96 c53 -30 143 -135 191 -223 16 -29 7 -108 -14 -129 -14 -14 -37 -122 -49 -230 -9 -85 -38 -141 -86 -165 -21 -11 -48 -20 -59 -20 -39 0 -95 37 -124 84 -16 25 -32 46 -36 46 -4 0 -10 24 -14 54 -7 64 -54 228 -67 236 -5 3 -12 26 -15 51 -5 37 -1 54 26 107 45 91 163 201 215 201 6 0 20 -5 32 -12z m3176 -1 c44 -19 137 -119 175 -188 35 -62 41 -117 17 -141 -17 -17 -60 -159 -70 -232 -4 -28 -21 -71 -37 -97 -60 -96 -124 -126 -194 -90 -57 29 -79 76 -98 214 -9 64 -23 129 -31 145 -21 40 -39 127 -32 154 13 51 142 209 189 232 40 20 41 20 81 3z m-4366 -65 c43 -33 104 -87 136 -120 51 -55 57 -65 57 -104 0 -25 -10 -64 -24 -93 -13 -27 -32 -74 -42 -104 -19 -62 -84 -135 -129 -146 -83 -21 -180 68 -240 218 -49 123 -56 202 -25 255 35 58 91 113 135 134 22 10 43 19 47 19 3 0 42 -27 85 -59z m598 40 c47 -21 161 -140 181 -187 8 -18 14 -54 14 -79 0 -48 -22 -115 -39 -115 -5 0 -24 -37 -41 -82 -38 -98 -61 -133 -101 -153 -46 -24 -101 -4 -166 58 -49 49 -54 58 -78 147 -32 120 -33 215 -4 271 40 80 129 158 179 158 8 0 33 -8 55 -18z m4377 10 c36 -14 128 -110 149 -155 29 -63 23 -153 -21 -316 -14 -54 -81 -123 -146 -151 l-45 -20 -43 21 c-45 21 -45 21 -113 183 -9 20 -19 37 -23 37 -16 0 -42 74 -42 123 -1 73 19 112 98 191 89 88 131 108 186 87z m658 -16 c35 -18 82 -71 115 -128 24 -42 27 -55 22 -108 -3 -33 -9 -65 -15 -72 -5 -7 -15 -30 -22 -52 -22 -70 -57 -129 -107 -182 -78 -83 -144 -83 -222 2 -28 31 -42 57 -52 99 -7 31 -15 56 -20 56 -12 0 -40 82 -41 120 -1 51 10 67 104 154 143 133 170 146 238 111z m-7777 -5 c34 -27 89 -162 90 -220 1 -53 -27 -99 -81 -130 -39 -24 -68 -25 -88 -6 -8 8 -39 20 -69 27 -65 14 -146 1 -180 -30 -38 -34 -68 -34 -102 2 -73 76 -58 235 32 342 l25 30 32 -19 c76 -44 90 -48 143 -44 39 3 64 13 96 36 50 37 67 39 102 12z m754 9 c66 -25 98 -75 114 -179 13 -83 2 -138 -36 -185 -22 -28 -25 -29 -106 -26 -78 2 -88 0 -144 -30 -68 -36 -115 -40 -165 -13 -25 12 -58 18 -112 18 -42 1 -79 4 -82 7 -4 3 -7 44 -7 90 -2 111 19 181 69 236 37 41 41 42 71 32 51 -18 182 -8 209 16 46 41 132 56 189 34z m7589 -34 c11 -11 37 -15 93 -15 64 0 82 4 101 20 22 19 39 24 70 20 25 -3 111 -92 131 -135 38 -81 15 -229 -43 -277 -18 -15 -41 -35 -51 -43 -26 -23 -63 -35 -104 -35 -19 0 -62 -7 -96 -16 -48 -12 -70 -13 -103 -5 -24 6 -67 11 -96 11 -79 0 -111 24 -137 102 -12 35 -32 85 -46 112 -43 85 -30 140 49 220 47 47 79 67 119 76 34 7 87 -8 113 -35z m810 30 c19 -8 47 -24 61 -35 20 -16 41 -20 97 -20 39 0 86 4 105 10 30 8 36 6 63 -23 49 -52 70 -111 76 -208 7 -136 8 -135 -90 -135 -62 0 -90 -4 -110 -18 -41 -27 -96 -23 -165 13 -56 29 -68 32 -144 30 -78 -2 -84 0 -105 25 -38 43 -48 99 -36 190 13 86 39 132 96 167 37 23 103 25 152 4z m717 4 c12 -7 35 -23 50 -35 21 -18 41 -24 76 -24 50 0 111 16 111 30 0 4 14 13 30 20 29 12 33 11 60 -15 35 -33 59 -98 67 -180 13 -146 -63 -235 -142 -164 -27 24 -107 43 -155 36 -22 -3 -59 -14 -83 -26 -43 -21 -87 -28 -87 -13 0 4 -14 15 -31 24 -41 24 -73 97 -64 146 13 68 54 155 88 183 36 31 49 34 80 18z m-8637 -30 c14 -16 31 -19 95 -19 67 0 83 4 115 25 44 30 91 32 142 6 41 -21 126 -106 143 -145 15 -32 4 -107 -20 -138 -10 -13 -22 -34 -26 -48 -42 -137 -64 -160 -157 -160 -29 0 -70 -5 -92 -11 -29 -8 -53 -7 -105 5 -36 8 -89 17 -118 20 -42 4 -63 13 -105 46 -64 50 -79 81 -85 181 -7 102 6 140 74 203 75 70 101 77 139 35z m3528 -8 c40 -39 66 -87 66 -123 0 -13 -9 -41 -20 -62 -27 -55 -47 -116 -71 -226 -11 -52 -24 -97 -29 -100 -5 -3 -15 -37 -24 -77 -23 -113 -50 -155 -148 -226 -52 -38 -86 -35 -152 14 -39 29 -60 54 -75 89 -12 27 -21 53 -21 58 0 5 -7 23 -15 38 -8 16 -19 54 -26 84 -14 72 -58 227 -75 267 -18 40 -18 78 0 111 8 15 22 47 32 71 21 51 73 103 112 113 15 3 113 6 219 5 l192 -2 35 -34z m705 33 c42 -9 95 -63 117 -119 9 -25 20 -45 24 -45 25 0 15 -172 -10 -190 -9 -6 -44 -130 -65 -230 -9 -41 -29 -102 -44 -135 -26 -55 -45 -77 -120 -138 -38 -31 -73 -24 -137 24 -81 62 -111 108 -130 204 -8 44 -22 94 -30 112 -8 17 -27 82 -43 145 -16 63 -39 136 -51 163 -19 42 -21 54 -11 85 15 51 67 114 99 121 36 9 361 11 401 3z m-1489 -19 c25 -3 41 -14 52 -33 15 -25 15 -37 1 -142 -9 -63 -20 -118 -25 -121 -6 -4 -20 -68 -33 -143 -24 -141 -32 -161 -85 -214 -41 -42 -71 -49 -110 -26 -52 31 -69 82 -80 245 -5 79 -12 182 -16 229 -7 99 6 163 39 185 12 8 58 18 102 22 81 9 91 8 155 -2z m2088 -22 c49 -48 66 -150 38 -229 -7 -22 -16 -97 -20 -169 -8 -157 -25 -216 -72 -251 -43 -34 -71 -27 -125 29 -52 52 -55 62 -84 227 -13 74 -31 159 -39 189 -9 30 -19 83 -22 117 -6 54 -4 64 15 83 12 12 35 21 54 22 17 1 43 4 56 8 42 12 179 -6 199 -26z m-6239 -389 c12 -9 52 -19 88 -22 60 -4 64 -6 58 -26 -3 -12 -18 -73 -32 -136 -14 -63 -30 -117 -34 -120 -11 -8 -36 -168 -49 -315 -15 -176 -27 -238 -53 -281 -32 -54 -85 -107 -98 -99 -32 20 -39 74 -39 296 0 122 -5 263 -11 313 -15 136 -39 309 -45 329 -4 14 1 17 34 17 23 0 60 11 93 29 67 35 60 34 88 15z m10216 -9 c23 -14 66 -28 94 -32 37 -4 51 -10 47 -19 -36 -94 -75 -653 -54 -780 9 -53 8 -71 -6 -108 -9 -24 -23 -47 -31 -50 -22 -8 -69 37 -90 86 -10 24 -25 50 -32 59 -8 9 -18 60 -24 115 -5 55 -14 149 -20 209 -14 139 -36 261 -54 300 -8 17 -25 69 -38 118 l-24 87 46 0 c54 0 121 17 121 30 0 16 19 11 65 -15z m-9255 -151 c0 -281 -33 -606 -68 -671 -61 -113 -74 -135 -78 -131 -2 3 1 38 6 79 23 176 23 184 0 288 l-23 101 -32 0 -32 0 -6 -132 c-6 -140 -31 -296 -51 -313 -6 -5 -20 -30 -31 -55 -40 -94 -43 -79 -19 95 9 64 13 132 10 151 -6 31 -10 34 -41 34 -38 0 -32 13 -76 -164 l-22 -90 -16 33 c-14 29 -14 45 3 174 10 78 20 188 23 244 6 110 -11 299 -33 372 -8 26 -14 54 -14 64 0 25 30 21 70 -8 30 -22 44 -25 125 -25 87 0 93 2 145 35 45 28 65 35 108 35 l52 0 0 -116z m8356 81 c52 -33 59 -35 142 -35 75 1 93 4 127 25 52 32 79 33 72 3 -3 -13 -13 -57 -23 -98 -25 -109 -26 -411 0 -582 16 -107 17 -132 6 -158 -7 -17 -16 -27 -21 -23 -4 4 -19 59 -34 121 l-27 113 -37 -3 -36 -3 -3 -72 c-2 -40 4 -106 13 -147 8 -42 15 -85 15 -98 -1 -23 -1 -23 -16 -3 -8 11 -20 37 -26 57 -6 21 -16 38 -23 38 -19 0 -47 168 -53 313 l-5 137 -32 0 c-31 0 -33 -2 -50 -61 -25 -91 -29 -190 -11 -304 8 -54 14 -101 12 -103 -5 -4 -46 66 -46 78 0 5 -7 13 -16 18 -20 11 -50 127 -63 249 -13 110 -31 554 -24 566 2 4 27 7 54 7 40 0 61 -7 105 -35z m-7882 -81 c60 -16 192 -15 317 2 l46 6 12 -163 c30 -397 31 -733 3 -761 -13 -13 -18 17 -27 150 -8 122 -20 184 -49 246 -13 28 -28 63 -34 79 -10 23 -17 27 -52 27 -40 0 -40 0 -40 -38 0 -21 9 -56 19 -78 11 -22 23 -54 27 -70 4 -16 11 -34 16 -40 9 -12 -5 -86 -41 -219 -20 -73 -55 -165 -63 -165 -2 0 -3 69 -3 153 0 143 -2 156 -28 220 -29 73 -28 104 4 133 13 12 19 30 19 61 l0 43 -37 0 c-21 0 -43 -4 -49 -8 -16 -10 -41 -72 -70 -177 -14 -49 -30 -95 -34 -100 -5 -6 -12 -51 -16 -100 -7 -101 -28 -165 -46 -147 -13 13 14 241 30 251 11 7 28 145 38 306 7 126 -10 324 -31 366 -8 15 -15 30 -15 34 0 9 41 5 104 -11z m7341 -14 c-27 -51 -38 -191 -31 -370 9 -194 18 -279 33 -288 15 -10 46 -249 34 -269 -16 -29 -39 36 -47 133 -3 49 -10 94 -15 99 -4 6 -17 45 -28 87 -31 115 -60 187 -81 198 -10 6 -32 10 -49 10 -30 0 -31 -2 -31 -44 0 -25 6 -48 14 -55 16 -13 31 -58 27 -81 -2 -8 -13 -35 -24 -60 -20 -40 -22 -62 -22 -212 0 -154 -1 -166 -15 -147 -9 11 -31 77 -49 147 -18 70 -39 147 -47 170 -12 38 -11 46 1 59 8 8 15 21 15 28 0 8 11 40 25 71 14 31 25 72 25 91 0 34 0 34 -41 31 -25 -2 -45 -9 -50 -18 -64 -126 -78 -178 -86 -325 -3 -66 -10 -131 -15 -145 l-10 -25 -11 25 c-18 44 -5 681 19 868 l5 44 52 -6 c149 -16 263 -17 307 -3 25 8 60 15 78 16 l33 1 -16 -30z m-6349 -82 c-3 -13 -10 -88 -16 -168 -17 -218 -21 -250 -30 -250 -5 0 -11 -19 -14 -42 -51 -391 -71 -504 -90 -528 -7 -8 -18 -30 -26 -47 -7 -18 -16 -33 -21 -33 -15 0 -18 60 -23 395 -4 288 -21 566 -41 655 l-6 26 103 -4 c57 -2 114 1 128 7 37 15 41 13 36 -11z m5429 4 c71 3 102 1 99 -6 -17 -49 -37 -372 -41 -671 -3 -192 -10 -361 -15 -374 -9 -24 -10 -23 -38 26 -36 63 -42 88 -79 344 -17 112 -34 218 -40 234 -6 17 -17 109 -26 205 -8 96 -17 194 -20 217 l-6 42 31 -11 c19 -6 73 -9 135 -6z m-4983 -20 c43 -2 91 1 108 6 29 11 30 10 30 -21 -1 -94 -20 -289 -28 -300 -22 -26 -82 -440 -82 -567 0 -75 -15 -160 -29 -170 -4 -3 -17 -22 -30 -43 -12 -20 -27 -37 -32 -37 -6 0 -17 16 -25 35 -13 31 -12 49 3 157 30 222 21 561 -24 912 -6 46 -5 49 13 41 10 -5 54 -10 96 -13z m4367 0 c47 3 95 9 105 13 17 7 18 5 12 -26 -39 -214 -53 -756 -24 -947 12 -74 12 -99 2 -128 -7 -19 -15 -38 -18 -41 -9 -9 -33 16 -62 64 -23 40 -27 61 -34 179 -5 74 -11 155 -15 181 -16 125 -47 310 -55 325 -15 26 -28 132 -36 272 l-7 128 23 -12 c15 -8 52 -11 109 -8z m-3236 -99 c29 2 60 8 69 12 16 6 16 4 3 -32 -15 -39 -56 -294 -75 -460 -5 -50 -17 -120 -26 -154 -20 -76 -17 -330 4 -351 6 -6 12 -20 12 -29 0 -35 -19 -29 -44 14 -50 85 -63 257 -58 754 l2 262 31 -11 c16 -6 54 -8 82 -5z m2238 -613 c-12 -225 -33 -355 -64 -398 l-22 -29 0 221 c-1 169 -5 240 -18 301 -9 44 -32 180 -50 302 l-32 221 65 -5 c36 -3 76 -1 90 5 l25 9 8 -216 c5 -132 4 -291 -2 -411z m534 295 c-8 -34 -15 -77 -15 -96 0 -19 -11 -122 -25 -229 -46 -357 -59 -572 -40 -690 l5 -35 -20 35 c-10 19 -19 43 -20 52 0 9 -7 24 -16 32 -16 17 -19 44 -50 496 -22 326 -41 515 -53 538 -6 11 -13 63 -17 115 l-7 96 39 -11 c45 -12 138 -5 186 15 l33 14 8 -136 c6 -108 4 -148 -8 -196z m-3374 309 c49 -16 140 -16 182 1 15 6 17 0 17 -50 0 -32 -9 -88 -19 -124 -10 -36 -22 -102 -25 -146 -4 -44 -11 -138 -17 -210 -6 -71 -18 -252 -28 -402 -10 -150 -23 -278 -28 -285 -6 -7 -18 -35 -27 -63 -31 -96 -38 -88 -31 40 7 146 -5 315 -46 630 -17 132 -34 265 -38 295 -7 60 -2 330 5 330 3 0 28 -7 55 -16z m1409 -205 c-6 -57 -18 -129 -27 -159 -21 -78 -50 -291 -62 -456 -6 -77 -16 -156 -23 -175 -18 -51 -100 -161 -111 -150 -6 6 -14 86 -18 178 -10 199 -13 240 -32 398 -9 66 -20 181 -27 255 -6 74 -14 150 -17 167 l-5 33 32 -16 c72 -36 212 -28 270 16 14 10 26 17 28 15 2 -1 -2 -50 -8 -106z m604 60 c58 -14 152 -7 196 16 l33 17 -6 -34 c-9 -45 -34 -337 -42 -474 -4 -61 -11 -129 -16 -150 -6 -22 -13 -112 -18 -202 -4 -93 -12 -167 -18 -173 -8 -8 -19 1 -41 33 -71 103 -81 135 -92 278 -16 205 -44 410 -73 535 -8 33 -17 93 -21 134 l-7 73 28 -20 c16 -12 51 -26 77 -33z m4995 -349 c0 -19 -4 -42 -9 -50 -7 -10 -9 10 -9 65 1 58 3 72 9 50 4 -16 8 -46 9 -65z m-10654 -6 c-7 -51 -25 -50 -25 2 0 40 23 86 28 58 2 -9 1 -36 -3 -60z"></path>
        </g>
    </g>
    <g id="l6lMmuUm1uNKzaNjaiSHrzo" fill="rgb(255,255,255)" style="transform: none;">
        <g>
            <path id="pO7K6asM2"
                  d="M0 2960 l0 -2960 5800 0 5800 0 0 2960 0 2960 -5800 0 -5800 0 0 -2960z m4448 2542 c38 -37 54 -74 91 -209 7 -24 16 -43 20 -43 5 0 11 -12 14 -27 37 -210 47 -274 57 -364 6 -59 17 -120 24 -135 15 -31 39 -302 56 -634 15 -296 19 -329 40 -378 15 -33 22 -78 27 -166 3 -71 2 -118 -3 -113 -5 5 -12 57 -15 115 l-6 107 -1 -132 c0 -127 -2 -136 -32 -202 -19 -40 -50 -87 -76 -112 l-45 -44 -78 0 c-58 0 -84 4 -97 16 -11 9 -44 30 -74 47 -80 45 -137 107 -158 172 -9 30 -21 54 -27 53 -5 -1 -17 -27 -28 -58 -25 -78 -56 -124 -119 -178 -66 -56 -125 -74 -189 -57 -24 7 -51 18 -59 25 -9 8 -34 27 -57 42 -54 37 -117 115 -132 162 -16 54 -14 222 4 327 20 122 47 224 58 224 5 0 7 6 4 14 -3 8 -2 16 3 18 8 3 70 272 84 364 3 22 13 56 23 75 15 30 17 68 18 313 0 215 -3 280 -12 283 -7 3 -13 9 -13 14 0 6 5 7 10 4 6 -3 10 3 10 15 0 12 7 34 15 50 30 58 83 34 140 -65 16 -28 32 -52 37 -55 13 -10 36 -123 42 -210 4 -47 11 -198 16 -337 6 -138 17 -309 25 -379 8 -70 12 -131 9 -135 -2 -4 0 -10 6 -14 5 -3 10 -18 10 -32 0 -14 11 -55 23 -92 13 -36 32 -100 42 -141 10 -41 22 -79 26 -84 10 -11 22 40 48 209 12 77 29 150 36 162 14 21 34 160 54 383 6 63 16 167 23 230 6 63 12 252 12 420 1 250 -2 322 -16 397 -14 72 -15 98 -6 125 26 79 74 90 136 30z m2838 17 c23 -25 25 -111 6 -261 -33 -262 12 -1044 75 -1292 39 -158 54 -252 60 -398 7 -168 -3 -215 -60 -270 -22 -21 -65 -52 -96 -69 -31 -18 -63 -38 -72 -46 -19 -16 -115 -29 -151 -20 -41 11 -108 77 -139 138 -32 65 -55 181 -53 274 1 33 11 105 23 159 12 57 21 136 21 185 0 101 38 662 45 669 3 3 6 -6 6 -19 2 -42 18 52 19 111 1 68 32 312 56 440 14 77 19 89 24 65 6 -26 7 -23 14 25 21 152 52 232 110 293 43 43 82 49 112 16z m-4114 -337 c2 -4 20 -21 41 -36 68 -52 104 -144 123 -316 5 -46 9 -59 15 -45 4 11 8 16 9 10 0 -5 5 -44 10 -85 9 -68 29 -274 61 -620 6 -69 17 -147 25 -174 8 -27 14 -67 14 -88 0 -21 9 -71 20 -110 29 -104 42 -224 32 -295 -7 -52 -15 -68 -58 -117 -28 -32 -78 -74 -116 -96 -57 -35 -75 -40 -126 -40 -41 0 -63 5 -72 15 -7 8 -17 15 -22 15 -28 0 -113 79 -159 148 l-51 77 4 105 c3 70 10 117 21 140 28 58 57 150 77 244 11 49 24 94 29 100 13 15 56 238 71 367 15 121 8 585 -10 690 -12 71 -12 77 6 97 19 21 50 29 56 14z m5318 -7 c14 -16 12 -72 -11 -310 -11 -124 -7 -325 12 -495 14 -129 48 -301 63 -325 7 -11 21 -60 31 -109 17 -90 57 -219 74 -240 5 -6 16 -47 25 -91 9 -44 23 -111 30 -150 l15 -70 -6 100 c-6 112 3 168 43 270 l27 70 7 355 c5 285 10 373 25 445 14 68 20 84 25 65 6 -22 7 -20 13 16 18 110 48 176 105 237 76 79 162 123 162 82 0 -8 5 -15 10 -15 6 0 10 -17 9 -37 -1 -34 -2 -35 -9 -13 l-8 25 -1 -27 c-1 -15 -11 -53 -23 -85 -12 -32 -30 -89 -39 -128 -13 -51 -18 -62 -19 -40 -5 80 -20 -64 -26 -245 -6 -220 -3 -237 68 -293 34 -28 39 -29 68 -17 17 7 37 25 44 39 8 14 28 43 45 65 17 21 45 76 63 122 18 48 35 79 39 73 8 -14 24 56 49 223 25 163 41 229 50 203 5 -14 10 -7 19 29 25 101 88 186 137 186 9 0 28 -12 43 -27 25 -28 25 -30 23 -163 -1 -74 -6 -160 -10 -190 -6 -37 -8 8 -6 140 l2 195 -8 -170 c-9 -200 -22 -310 -55 -460 -13 -60 -27 -126 -31 -145 -6 -29 -8 -31 -14 -15 -15 43 -36 -219 -25 -320 6 -55 12 -73 34 -94 36 -35 48 -66 66 -169 8 -48 19 -107 25 -132 10 -50 4 -159 -12 -205 -27 -75 -40 -93 -87 -119 -41 -22 -63 -26 -132 -27 -67 -2 -76 -3 -44 -9 36 -6 37 -7 9 -9 -16 0 -67 13 -112 29 -46 17 -94 30 -108 30 -15 0 -56 -15 -93 -32 -60 -30 -74 -33 -159 -33 -54 0 -96 4 -100 11 -4 5 -24 23 -44 38 -43 32 -58 72 -59 161 -1 87 -12 107 -27 50 -14 -55 -95 -159 -149 -194 -21 -13 -50 -32 -65 -43 -19 -12 -45 -18 -83 -18 -48 0 -67 6 -125 40 -79 46 -143 114 -174 184 l-22 48 -32 -64 c-30 -61 -86 -123 -169 -185 -38 -28 -107 -46 -146 -38 -76 16 -186 115 -224 201 -13 30 -18 67 -18 154 0 100 4 126 29 203 16 49 35 94 42 102 17 16 54 489 55 680 0 206 31 490 48 442 5 -13 10 -5 19 29 14 52 63 128 92 144 31 16 58 12 72 -12 13 -25 21 -438 8 -438 -4 0 -3 -25 2 -56 5 -30 6 -59 3 -65 -8 -12 4 -51 14 -45 4 3 12 -41 19 -97 16 -135 57 -330 75 -359 21 -33 69 -242 92 -403 2 -11 4 -38 4 -60 1 -34 4 -41 21 -41 16 0 20 7 20 36 0 19 16 98 35 175 19 77 39 187 45 245 31 355 62 682 69 725 l9 50 2 -75 3 -75 8 101 c10 136 35 278 59 330 16 37 46 72 112 131 18 17 43 16 58 -2z m-3458 -36 c52 -37 86 -122 103 -257 4 -28 12 -55 19 -60 20 -12 43 -232 86 -827 6 -83 20 -189 32 -235 18 -74 21 -116 22 -313 l1 -227 -30 -25 c-37 -30 -103 -33 -222 -10 -43 8 -95 15 -116 15 -48 0 -102 23 -116 48 -23 42 -32 114 -22 171 6 31 18 103 26 161 9 58 23 115 31 127 28 44 84 355 84 465 0 19 5 39 12 46 8 8 11 110 12 354 1 189 -1 316 -3 283 l-4 -60 -13 90 c-32 222 -31 259 9 275 26 10 53 4 89 -21z m1668 14 c10 -9 3 -150 -13 -266 -41 -286 -1 -962 64 -1101 28 -58 56 -205 70 -351 10 -116 9 -134 -5 -168 -20 -45 -62 -67 -130 -67 -25 0 -56 -4 -70 -10 -14 -5 -72 -12 -128 -15 -102 -6 -103 -6 -133 21 l-30 27 -3 174 c-3 179 8 331 27 342 10 7 25 136 36 316 17 292 52 685 61 694 2 2 5 -16 5 -40 1 -25 7 6 15 71 16 135 39 240 61 284 19 39 78 94 107 99 21 4 57 -1 66 -10z m-4650 -78 c26 -14 65 -79 84 -142 4 -13 12 -23 17 -23 6 0 7 -4 4 -10 -3 -5 -2 -10 3 -10 12 0 38 -109 53 -220 16 -131 28 -184 42 -195 7 -5 27 -48 45 -95 18 -47 45 -101 60 -120 15 -19 35 -47 45 -62 23 -37 62 -61 85 -54 10 4 34 19 52 36 50 45 61 109 50 289 -10 155 -31 318 -38 288 -4 -21 -58 121 -73 193 -24 114 24 120 141 16 60 -53 76 -78 102 -158 12 -37 25 -65 30 -62 4 3 8 3 8 1 0 -3 10 -49 22 -103 19 -88 21 -126 20 -340 -3 -317 9 -461 43 -528 34 -69 55 -204 55 -353 0 -146 -9 -175 -71 -224 -42 -33 -46 -34 -134 -34 -81 0 -96 3 -156 33 -77 37 -94 38 -172 12 -38 -13 -90 -20 -152 -21 -83 -2 -99 1 -148 25 -47 23 -58 33 -76 76 -11 27 -21 61 -22 77 l-1 28 -10 -30 c-6 -16 -14 -32 -18 -35 -4 -3 -10 -17 -13 -31 -4 -14 -16 -38 -28 -53 -53 -68 -139 -76 -265 -27 -79 32 -82 32 -119 17 -54 -23 -170 -31 -225 -16 -55 15 -115 74 -130 129 -5 21 -17 42 -26 45 -13 5 -15 18 -9 84 3 42 15 106 25 142 10 36 21 83 25 105 4 21 14 53 22 69 13 25 15 58 10 196 -3 91 -13 212 -21 270 -9 58 -20 157 -25 220 -7 98 -9 105 -11 50 l-2 -65 -8 45 c-4 25 -16 113 -25 196 -17 146 -17 154 1 193 15 35 22 41 49 41 23 0 35 -7 47 -27 21 -36 41 -130 36 -168 -3 -23 -7 -12 -17 42 -23 121 -72 175 -87 96 -6 -31 -8 -34 -15 -18 -7 18 -8 18 -8 -4 -2 -59 23 -255 29 -231 5 18 9 6 14 -45 4 -38 19 -149 32 -245 23 -158 43 -373 44 -458 0 -18 6 -34 13 -36 6 -2 38 -10 70 -17 57 -12 58 -12 130 24 39 21 79 37 87 37 8 0 38 -12 67 -27 l52 -28 73 24 c40 14 79 29 86 34 16 13 15 92 -3 268 -21 200 -51 367 -63 355 -3 -3 -22 39 -43 93 -44 118 -119 224 -162 229 -26 3 -27 2 -27 -45 0 -56 17 -123 34 -138 30 -25 72 -300 64 -422 -5 -68 -8 -79 -32 -100 -45 -39 -93 -27 -122 30 -9 18 -20 34 -23 37 -9 7 -44 91 -66 160 -10 30 -24 60 -30 67 -13 12 -59 173 -75 262 -23 123 -6 95 30 -48 20 -84 42 -156 49 -160 6 -4 27 -54 46 -111 19 -57 46 -120 58 -139 13 -20 32 -49 41 -64 14 -23 23 -28 49 -25 28 3 34 9 47 45 12 36 12 62 2 170 -14 154 -32 259 -41 244 -11 -18 -54 135 -55 195 -1 67 11 81 61 68 26 -6 46 -22 70 -54 42 -58 87 -144 103 -197 7 -23 16 -40 21 -38 29 18 99 -414 99 -606 0 -44 9 -94 30 -159 16 -52 42 -137 58 -189 l28 -94 18 121 c18 122 18 123 81 208 40 55 27 313 -25 474 -37 116 -56 222 -79 455 -12 124 -15 192 -8 220 19 86 39 100 97 70z m5817 -77 c-2 -13 -4 -5 -4 17 -1 22 1 32 4 23 2 -10 2 -28 0 -40z m-2345 -10 c33 -36 54 -72 68 -113 19 -59 50 -233 50 -288 0 -16 5 -26 12 -25 16 4 32 -161 48 -484 11 -210 30 -358 58 -428 15 -39 35 -291 29 -366 -4 -61 -8 -71 -38 -98 l-32 -29 -161 7 -161 7 -32 34 c-22 23 -33 44 -32 62 0 25 1 26 10 8 6 -13 7 19 3 91 -3 67 -2 114 4 118 5 3 13 41 16 83 4 43 15 143 26 223 10 80 24 217 30 305 13 200 14 662 0 735 -23 124 -24 169 -5 190 29 32 54 24 107 -32z m678 37 c17 -21 16 -80 -3 -210 -21 -138 -21 -295 -2 -650 14 -254 42 -490 66 -552 13 -36 30 -349 20 -375 -5 -13 -19 -33 -32 -45 -22 -19 -40 -22 -185 -28 l-161 -7 -34 30 -34 30 0 134 c0 86 6 163 17 218 41 204 57 339 68 565 8 163 16 247 25 261 7 11 16 60 20 110 14 179 64 429 82 410 4 -3 14 12 24 34 34 75 98 112 129 75z m4301 -115 c13 -47 9 -146 -16 -360 -14 -118 -25 -219 -26 -225 -1 -5 -4 4 -8 20 -10 44 -43 -249 -45 -394 -1 -101 2 -125 23 -181 14 -36 28 -67 31 -70 23 -18 39 -265 21 -328 -12 -41 -76 -119 -115 -140 -43 -23 -184 -22 -251 1 l-51 17 -82 -30 c-115 -42 -176 -41 -233 3 -61 47 -73 85 -73 247 0 118 4 147 29 235 15 55 31 102 35 105 15 11 30 77 30 136 0 93 19 306 36 412 17 102 41 189 44 157 0 -11 12 18 26 65 25 84 36 107 103 209 37 57 81 86 117 77 22 -6 24 -12 24 -64 0 -33 -11 -94 -24 -138 -13 -43 -27 -99 -32 -124 -7 -43 -8 -44 -14 -15 -10 47 -24 -86 -25 -233 0 -111 2 -125 19 -138 33 -24 61 -17 91 22 26 34 82 164 99 229 7 24 10 27 15 12 4 -11 24 50 51 159 46 181 69 209 29 36 -29 -130 -58 -224 -74 -237 -6 -5 -22 -39 -35 -75 -64 -183 -122 -229 -196 -155 -22 22 -24 32 -24 117 1 98 12 207 32 298 11 52 12 53 19 25 6 -28 7 -28 8 -5 0 14 10 58 21 98 19 69 26 152 14 165 -9 9 -55 -11 -71 -31 -7 -9 -25 -39 -39 -65 -13 -26 -29 -45 -33 -42 -7 4 -78 -192 -94 -260 -3 -14 -5 -11 -6 9 0 16 -3 27 -5 25 -9 -10 -37 -236 -45 -374 -13 -198 -9 -228 29 -218 11 3 20 1 20 -4 0 -5 24 -18 54 -28 l54 -18 66 28 66 28 75 -39 c73 -36 78 -37 121 -26 24 7 55 12 67 12 23 0 23 2 35 188 7 103 19 219 26 257 8 39 18 106 22 150 l9 80 5 -60 c4 -51 7 -33 20 110 17 197 19 330 5 344 -6 6 -20 8 -33 4 -24 -6 -36 -38 -67 -186 -10 -43 -19 -76 -21 -74 -8 8 29 213 43 241 20 40 31 47 68 44 22 -2 31 -9 36 -28z m-9875 -262 c48 -24 142 -125 173 -187 10 -20 26 -65 35 -101 9 -35 21 -67 25 -70 5 -3 23 -87 40 -186 26 -153 58 -283 60 -250 1 5 28 -45 60 -110 64 -129 91 -232 91 -349 0 -49 -5 -68 -23 -91 -51 -66 -131 -114 -189 -114 -17 0 -51 12 -76 26 -44 26 -45 26 -94 10 -30 -9 -84 -16 -133 -16 -93 0 -131 17 -172 79 -22 32 -23 44 -23 201 0 172 7 212 43 262 15 20 25 64 38 170 10 79 18 164 19 189 0 52 -35 200 -50 209 -12 7 -56 152 -65 212 -12 89 54 154 148 144 27 -3 68 -15 93 -28z m10587 4 c15 -9 27 -25 27 -35 0 -10 4 -16 9 -13 20 13 27 -63 11 -114 -5 -16 -7 -2 -4 40 l3 65 -9 -55 c-19 -117 -86 -350 -100 -350 -15 0 -12 -130 4 -186 8 -27 19 -90 26 -141 6 -51 20 -108 30 -128 18 -34 24 -86 35 -285 5 -87 4 -99 -20 -147 -33 -70 -77 -93 -176 -93 -40 0 -99 7 -131 16 l-58 17 -38 -27 c-77 -53 -182 -18 -259 87 -35 47 -38 57 -37 113 0 39 6 71 17 87 8 13 21 53 27 87 14 78 46 164 66 181 28 23 52 83 74 189 12 58 28 118 36 133 8 16 18 58 24 95 23 150 58 272 78 272 4 0 16 17 26 37 69 145 230 219 339 155z m-3754 -1160 c1 -33 -3 -51 -9 -47 -5 3 -10 36 -9 73 1 81 17 57 18 -26z m-3903 -18 c-4 -20 -10 -34 -13 -30 -3 3 -2 21 1 42 4 20 10 34 13 30 3 -3 2 -21 -1 -42z m746 -515 c36 -18 62 -46 134 -143 47 -64 64 -105 64 -158 0 -55 -42 -232 -51 -216 -4 6 -10 -15 -14 -48 -3 -32 -12 -104 -20 -159 -8 -55 -21 -176 -30 -270 -20 -212 -24 -242 -35 -226 -4 7 -10 -35 -14 -95 -4 -60 -13 -199 -21 -309 -8 -110 -17 -249 -20 -310 -8 -148 -24 -245 -41 -252 -8 -3 -14 -11 -14 -19 0 -26 -53 -125 -73 -135 -16 -9 -24 -7 -41 10 -19 19 -20 30 -16 99 10 158 2 362 -24 582 -15 124 -33 245 -41 270 -19 61 -39 419 -32 554 6 96 3 124 -19 225 -14 64 -36 132 -47 151 -19 30 -22 50 -22 135 1 112 9 131 95 227 59 66 93 89 154 104 55 13 72 11 128 -17z m3175 0 c40 -19 153 -131 153 -152 0 -5 10 -23 23 -40 19 -28 22 -44 22 -128 0 -79 -3 -101 -18 -117 -10 -10 -31 -72 -47 -136 -29 -113 -30 -123 -34 -433 -5 -313 -11 -400 -26 -358 -4 12 -10 -16 -14 -70 -4 -49 -16 -157 -27 -240 -26 -201 -35 -440 -20 -534 7 -42 8 -78 3 -83 -10 -10 -31 128 -34 222 -1 36 2 101 6 145 14 161 66 602 78 665 12 59 13 468 2 479 -2 2 -13 -8 -24 -22 -46 -58 -172 -78 -248 -38 -24 12 -46 20 -49 18 -8 -8 18 -280 29 -300 11 -22 30 -215 52 -537 31 -452 34 -479 50 -496 9 -8 16 -22 16 -30 0 -8 13 -41 30 -74 31 -61 55 -72 62 -27 3 19 4 19 9 -5 8 -37 -9 -59 -37 -48 -30 12 -101 148 -113 217 -6 32 -17 166 -26 298 -30 465 -34 512 -49 576 -8 35 -22 138 -31 229 -9 91 -22 215 -30 275 -8 61 -17 134 -20 163 -4 28 -10 52 -14 52 -13 0 -54 180 -53 235 0 56 7 71 62 150 54 76 112 137 145 151 46 20 122 17 172 -7z m-6542 -16 c28 -14 43 -32 70 -88 19 -38 39 -95 44 -125 7 -44 9 -48 10 -20 1 26 4 31 11 20 11 -18 14 -15 28 37 7 23 32 63 58 92 42 46 50 51 89 51 55 0 82 -9 63 -21 -8 -5 9 -9 43 -9 43 0 60 5 74 20 48 53 230 71 303 30 49 -28 89 -89 97 -149 4 -25 11 -58 16 -72 6 -15 9 -44 6 -65 l-4 -39 -3 45 c-2 33 -5 22 -9 -41 -5 -73 -10 -91 -34 -122 -25 -33 -27 -43 -27 -124 0 -48 -3 -113 -7 -143 -6 -49 -8 -52 -14 -25 -4 18 -7 -16 -8 -80 -3 -286 -35 -513 -79 -575 -10 -14 -29 -44 -42 -68 -13 -23 -44 -58 -68 -77 -68 -52 -88 -32 -65 65 7 30 12 69 12 85 -1 23 -4 17 -15 -25 -8 -30 -21 -60 -29 -66 -7 -5 -21 -30 -31 -55 -22 -55 -42 -79 -67 -79 -39 0 -57 29 -57 88 l0 55 -24 -22 c-31 -29 -63 -24 -90 12 -19 25 -21 41 -20 140 1 62 7 146 15 187 28 154 12 445 -30 530 -10 19 -30 60 -45 91 -20 38 -29 73 -31 112 -1 31 -4 60 -7 63 -10 9 -75 -85 -89 -129 -7 -21 -18 -41 -25 -45 -13 -8 -64 -203 -84 -322 -10 -55 -15 -70 -21 -55 -4 11 -8 17 -8 14 -1 -4 -10 -106 -21 -227 -11 -121 -27 -239 -35 -262 -20 -57 -80 -129 -121 -146 -51 -21 -77 -17 -110 17 -19 20 -35 28 -48 25 -32 -8 -75 25 -88 66 -13 43 3 163 27 207 19 36 67 207 73 259 11 111 -44 419 -88 490 -39 65 -55 167 -41 262 12 76 38 150 52 150 5 0 15 11 21 25 25 55 111 55 193 -1 44 -30 49 -30 89 1 72 55 131 67 191 38z m2112 -3 c56 -34 146 -111 199 -171 39 -43 53 -67 58 -100 8 -57 -7 -138 -40 -202 -22 -43 -28 -78 -40 -207 -35 -377 -55 -578 -61 -610 -6 -33 -7 -33 -13 -10 -4 17 -9 -1 -14 -55 -18 -209 -57 -421 -80 -440 -7 -5 -18 -24 -25 -42 -7 -17 -21 -39 -31 -48 -22 -20 -47 -10 -79 31 -20 25 -21 39 -21 273 0 348 -27 750 -55 818 -7 17 -17 58 -21 90 -7 60 -52 196 -79 236 -8 13 -18 46 -21 73 -9 80 -15 82 -36 14 -11 -36 -26 -72 -33 -80 -7 -8 -18 -33 -25 -55 -7 -22 -19 -53 -27 -68 -12 -25 -12 -62 3 -285 21 -324 24 -680 6 -740 -7 -24 -23 -49 -38 -59 -24 -15 -27 -15 -52 4 -29 22 -39 51 -42 128 -2 55 -13 94 -23 79 -3 -5 -22 -66 -42 -134 -20 -69 -44 -136 -54 -150 -10 -14 -25 -39 -34 -56 -19 -37 -48 -47 -76 -27 -26 18 -28 67 -5 144 18 61 15 232 -5 252 -6 6 -11 18 -11 27 0 27 -21 90 -30 90 -4 0 -16 -33 -25 -72 -9 -40 -20 -77 -25 -83 -4 -5 -11 -47 -15 -93 -6 -68 -12 -89 -32 -113 -36 -42 -77 -37 -106 12 l-20 35 27 175 c15 96 31 197 37 224 31 148 33 373 5 440 -7 17 -23 62 -35 101 -15 49 -34 85 -60 116 -52 58 -74 135 -74 253 0 110 19 161 87 223 74 68 121 77 216 41 60 -23 91 -21 166 13 52 23 127 20 187 -6 65 -29 167 -144 167 -188 0 -10 5 -18 10 -18 6 0 10 13 10 29 0 45 90 154 153 186 63 31 129 33 174 5z m656 -1 c52 -27 150 -126 179 -182 19 -35 22 -58 22 -132 0 -92 -12 -133 -54 -180 -38 -44 -48 -104 -54 -310 -3 -110 -13 -247 -21 -305 -8 -58 -15 -109 -15 -115 -1 -5 -5 -1 -9 9 -10 25 -49 -263 -63 -454 -10 -153 -18 -182 -69 -243 -25 -31 -37 -37 -68 -37 -41 0 -63 18 -76 60 -9 27 -9 169 0 210 3 14 9 84 15 157 14 191 -13 629 -45 712 -7 20 -20 74 -29 121 -8 47 -27 135 -40 195 -14 61 -27 144 -28 185 l-1 75 -7 -55 c-7 -51 -7 -50 -5 17 3 63 8 80 44 141 65 111 124 151 224 152 40 0 71 -7 100 -21z m4373 11 c70 -27 155 -133 174 -215 9 -40 -12 -236 -35 -325 -18 -69 -42 -189 -51 -255 -5 -38 -9 -45 -15 -30 -4 11 -8 18 -8 15 -1 -3 -8 -82 -15 -175 -24 -271 -28 -431 -16 -555 6 -63 13 -169 16 -235 5 -109 4 -123 -15 -152 -18 -28 -27 -33 -60 -33 -33 0 -44 6 -75 41 -20 22 -41 51 -46 64 -5 14 -14 89 -20 167 -9 128 -28 292 -46 403 -4 22 -11 43 -16 46 -18 11 -39 213 -47 429 -7 233 -7 230 -78 350 -24 40 -27 55 -27 135 0 60 5 102 16 126 22 50 131 163 181 188 46 23 136 28 183 11z m650 -15 c59 -30 140 -127 153 -182 7 -32 9 -35 16 -18 34 93 115 175 195 199 70 21 116 20 166 -3 70 -32 96 -34 164 -10 89 31 135 23 201 -32 34 -29 61 -62 77 -97 22 -49 24 -62 19 -160 -6 -128 -18 -172 -59 -214 -35 -36 -75 -117 -84 -170 -4 -21 -12 -38 -19 -38 -28 0 -28 -383 0 -485 8 -27 26 -122 40 -210 27 -165 26 -184 -8 -227 -8 -10 -28 -18 -45 -18 -40 0 -70 41 -78 107 -5 46 -24 140 -48 233 -7 25 -16 45 -21 45 -5 0 -14 -22 -21 -48 -7 -26 -18 -54 -24 -62 -10 -12 -11 -62 -5 -211 l7 -195 -34 3 c-26 2 -36 10 -50 37 -9 19 -21 37 -26 40 -11 7 -30 61 -73 201 -33 111 -47 116 -48 20 -1 -67 -18 -116 -47 -135 -23 -15 -28 -15 -49 -1 -44 29 -50 71 -47 344 1 138 8 353 16 477 l14 225 -25 62 c-14 35 -36 86 -49 113 -13 28 -27 65 -30 83 -10 52 -21 46 -28 -15 -4 -32 -13 -64 -20 -73 -23 -27 -75 -193 -87 -280 -10 -64 -14 -79 -20 -60 l-7 25 -1 -25 c-1 -14 -9 -95 -17 -180 -8 -85 -18 -317 -21 -515 -6 -387 -7 -398 -60 -432 -26 -17 -26 -17 -55 17 -60 73 -82 148 -113 395 -9 71 -23 145 -30 165 -13 33 -32 189 -55 455 -22 253 -31 310 -59 381 -36 88 -45 140 -36 204 6 44 14 57 74 117 174 176 243 205 357 148z m1365 4 c20 -5 54 -21 75 -35 31 -22 46 -25 83 -21 25 3 47 10 49 16 2 6 25 11 51 11 41 0 51 -5 83 -37 68 -72 88 -139 90 -303 0 -99 -2 -111 -26 -152 -14 -25 -26 -52 -26 -61 0 -9 -6 -20 -14 -24 -41 -24 -69 -330 -45 -503 6 -41 14 -109 19 -150 4 -41 11 -90 15 -107 3 -19 2 -33 -3 -33 -5 0 -12 -18 -15 -41 -3 -22 -13 -49 -23 -60 -20 -23 -57 -25 -74 -4 -21 26 -30 17 -30 -32 0 -73 -53 -110 -92 -65 -23 24 -48 90 -48 121 0 19 7 11 25 -33 32 -79 44 -91 73 -70 27 19 29 82 7 189 -17 79 -19 151 -6 159 5 4 21 -45 36 -106 39 -166 66 -195 106 -116 24 48 23 108 -5 313 -18 129 -20 238 -6 355 12 94 39 202 53 211 11 8 6 41 -8 51 -23 17 -100 8 -140 -17 -62 -38 -139 -35 -207 8 -73 46 -81 48 -156 41 -52 -6 -66 -11 -70 -26 -4 -15 -7 -17 -13 -6 -15 23 -10 -46 5 -78 10 -20 16 -92 20 -239 4 -115 11 -250 17 -299 13 -105 44 -229 58 -234 6 -2 20 -24 33 -48 25 -51 109 -135 116 -115 2 6 -3 49 -12 94 -41 218 -42 290 -3 403 13 36 14 30 20 -111 4 -93 14 -182 27 -235 11 -47 19 -92 19 -100 0 -27 -25 33 -39 94 -20 86 -25 50 -6 -43 23 -113 22 -131 -10 -131 -36 0 -85 50 -138 139 -55 93 -72 159 -86 326 -7 72 -16 177 -21 235 -6 58 -13 165 -16 239 -4 119 -8 139 -29 170 -30 46 -54 115 -54 154 0 43 19 143 37 196 40 113 144 151 304 110z m747 -9 c28 -17 52 -35 52 -40 0 -18 39 -10 76 15 118 80 202 47 245 -97 29 -94 24 -250 -9 -315 -12 -24 -26 -60 -31 -80 -4 -21 -12 -37 -18 -36 -15 3 -53 -265 -53 -378 0 -53 37 -186 59 -213 17 -21 53 -219 46 -256 -9 -46 -41 -80 -77 -80 -18 0 -45 -13 -69 -32 l-40 -32 -56 19 c-52 19 -58 24 -96 90 -44 78 -57 140 -77 370 -14 167 -30 276 -40 270 -4 -2 -24 59 -44 137 -39 152 -43 161 -95 235 -70 99 -58 280 26 392 50 66 120 77 201 31z m-5182 4 c35 -4 49 -13 83 -54 49 -58 62 -112 49 -195 -5 -31 -20 -77 -33 -103 -13 -26 -39 -110 -57 -187 -18 -77 -36 -141 -40 -143 -4 -2 -5 -18 -2 -35 3 -24 2 -27 -4 -12 -7 15 -10 5 -15 -40 -6 -66 -41 -351 -56 -460 -6 -38 -13 -95 -17 -125 -8 -52 -8 -53 -14 -20 -6 36 -19 -81 -40 -350 -13 -167 -27 -209 -101 -298 -51 -62 -65 -73 -87 -70 -18 2 -31 12 -40 30 -12 26 -32 218 -52 517 -11 148 -55 602 -66 672 -4 21 -10 39 -14 39 -4 0 -11 23 -14 52 -12 91 -65 297 -88 341 -17 33 -22 60 -22 132 -1 93 8 150 23 141 5 -3 11 12 15 33 7 45 44 95 89 117 16 9 59 19 96 24 65 8 326 4 407 -6z m784 -10 c48 -20 70 -42 92 -91 10 -23 23 -43 28 -45 12 -4 30 -97 30 -157 0 -57 -24 -161 -39 -170 -12 -8 -51 -155 -71 -266 -6 -38 -19 -89 -27 -112 -8 -24 -19 -84 -24 -135 -28 -283 -51 -577 -58 -758 -9 -198 -25 -302 -53 -337 -29 -36 -79 -1 -150 102 -50 73 -57 101 -73 298 -16 198 -40 374 -54 391 -4 6 -11 36 -14 66 -5 50 -48 400 -63 510 -3 25 -11 51 -17 58 -6 8 -26 74 -44 148 -18 75 -45 160 -59 190 -23 48 -26 66 -23 132 4 73 6 81 42 124 21 25 46 50 55 54 56 25 460 24 522 -2z m-1496 -8 c72 -30 77 -64 46 -271 -29 -195 -31 -203 -39 -181 -5 12 -12 -20 -20 -84 -7 -57 -18 -120 -26 -139 -7 -20 -18 -81 -24 -136 -18 -150 -23 -174 -31 -150 -5 14 -9 1 -14 -40 -4 -33 -19 -139 -34 -235 -23 -154 -27 -205 -27 -427 l0 -251 -24 -26 c-14 -14 -30 -26 -37 -26 -21 0 -80 82 -98 135 -33 104 -75 698 -47 681 26 -17 6 583 -26 759 -9 50 -16 136 -17 191 0 96 1 104 29 143 15 23 32 44 37 47 12 8 159 21 246 23 43 0 86 -5 106 -13z m1976 4 c77 -10 88 -14 119 -45 33 -32 35 -38 39 -117 5 -100 -14 -299 -29 -309 -8 -5 -10 -127 -5 -452 4 -286 3 -468 -3 -509 -6 -34 -15 -122 -21 -194 -6 -73 -17 -158 -26 -190 -17 -67 -57 -131 -92 -147 -20 -9 -27 -7 -48 16 -29 32 -31 56 -18 242 l9 130 6 -105 6 -105 -2 110 c-2 61 -7 133 -13 160 -10 43 -37 230 -73 499 -6 43 -17 88 -24 100 -7 12 -17 57 -20 101 -4 44 -16 107 -25 140 -10 33 -23 98 -30 145 -6 47 -18 99 -25 115 -8 17 -23 95 -35 175 -22 152 -20 182 16 217 32 32 145 41 294 23z m1347 -312 c-2 -13 -4 -3 -4 22 0 25 2 35 4 23 2 -13 2 -33 0 -45z m1100 -1420 c-2 -13 -4 -5 -4 17 -1 22 1 32 4 23 2 -10 2 -28 0 -40z"></path>
            <path id="pXMkorcUW"
                  d="M4357 5502 c-30 -33 -34 -62 -21 -155 7 -49 16 -93 22 -96 13 -9 20 -278 12 -461 -6 -146 -7 -138 -10 140 l-4 295 -7 -330 c-6 -307 -14 -448 -39 -699 -6 -54 -10 -112 -10 -128 l0 -30 50 36 c70 50 113 49 194 -4 34 -22 81 -64 106 -94 24 -30 46 -54 47 -52 7 7 -39 661 -47 672 -6 6 -17 72 -26 145 -17 151 -63 462 -70 468 -2 2 -4 -4 -5 -15 0 -10 -10 15 -20 56 -43 165 -50 181 -91 226 -45 49 -57 53 -81 26z"></path>
            <path id="pi9tzGutK"
                  d="M3801 5072 c-6 -11 -8 -103 -4 -238 4 -170 2 -251 -11 -364 -19 -161 -25 -192 -35 -185 -4 2 -13 -29 -19 -69 -7 -39 -24 -116 -38 -170 -13 -55 -22 -101 -20 -104 3 -2 22 3 42 13 74 35 230 7 288 -51 10 -9 20 -14 23 -11 3 4 -2 102 -11 219 -9 117 -21 328 -26 468 -10 249 -22 360 -41 360 -5 0 -16 17 -24 38 -18 41 -82 112 -102 112 -7 0 -17 -8 -22 -18z"></path>
            <path id="pUQbvj6Gm"
                  d="M4405 4072 c-74 -25 -111 -74 -135 -179 -7 -29 -15 -51 -20 -48 -4 3 -13 -30 -19 -73 -6 -42 -15 -109 -21 -149 -23 -166 -9 -230 70 -307 65 -64 194 -136 243 -136 25 0 51 12 90 41 48 36 61 53 89 118 31 73 33 82 33 206 0 134 -12 204 -56 325 -47 127 -188 231 -274 202z"></path>
            <path id="pbozEZNWc"
                  d="M3733 3938 c-18 -6 -49 -30 -68 -54 -44 -53 -62 -133 -71 -314 -9 -170 -3 -189 89 -276 96 -90 137 -114 193 -114 52 0 98 26 161 91 62 65 93 138 93 224 0 68 -32 212 -64 289 -18 42 -91 118 -137 142 -41 21 -151 28 -196 12z"></path>
            <path id="p18YjQf5sZ"
                  d="M7180 5473 c-48 -54 -64 -97 -100 -273 -18 -86 -26 -108 -31 -90 -4 14 -7 20 -8 14 -1 -5 -8 -62 -16 -125 -18 -131 -40 -342 -55 -508 -5 -63 -14 -117 -19 -120 -7 -5 -31 -313 -31 -409 0 -30 1 -31 20 -20 11 7 32 30 46 50 14 20 54 55 88 77 82 54 126 55 196 6 59 -41 62 -42 55 -12 -11 47 -35 299 -45 477 -6 102 -15 215 -20 253 -18 124 -14 244 21 549 14 124 -1 178 -50 178 -4 0 -27 -21 -51 -47z"></path>
            <path id="peTxtkNDI"
                  d="M7140 4071 c-49 -15 -89 -41 -123 -81 -83 -98 -136 -269 -137 -440 0 -156 34 -247 122 -324 47 -41 58 -46 99 -46 26 0 49 3 51 8 2 4 32 22 68 40 73 36 156 110 175 156 25 61 26 128 5 286 -21 157 -38 241 -50 250 -3 3 -12 21 -20 40 -17 46 -57 89 -97 106 -35 15 -55 16 -93 5z"></path>
            <path id="p6Y1BEacu"
                  d="M3137 5147 c-15 -11 -16 -22 -6 -107 5 -52 17 -116 25 -141 18 -57 17 -425 -2 -422 -7 1 -14 -34 -18 -100 -4 -56 -23 -182 -42 -280 -20 -98 -33 -181 -30 -184 3 -4 14 1 23 9 28 24 92 41 134 35 53 -7 115 -40 168 -90 l44 -42 -7 80 c-3 44 -13 150 -21 235 -18 184 -34 359 -45 490 -4 61 -8 79 -10 50 -2 -34 -7 -13 -21 80 -31 210 -47 267 -93 324 -54 65 -77 80 -99 63z"></path>
            <path id="p10Q3X66yU" d="M3148 4690 c2 -96 5 -179 7 -185 7 -20 3 271 -4 315 -4 25 -5 -34 -3 -130z"></path>
            <path id="pwkabD0gv"
                  d="M3144 3929 c-17 -5 -52 -31 -77 -58 -38 -40 -50 -64 -72 -137 -15 -49 -33 -104 -41 -122 -8 -18 -14 -62 -14 -98 0 -58 4 -73 39 -133 74 -125 171 -190 270 -178 70 8 117 36 187 109 70 72 81 106 69 211 -21 186 -56 261 -165 349 -77 62 -129 77 -196 57z"></path>
            <path id="p15Nko4ebT" d="M3208 3183 c12 -2 30 -2 40 0 9 3 -1 5 -23 4 -22 0 -30 -2 -17 -4z"></path>
            <path id="p1HZvJx5Sz"
                  d="M8444 5150 c-35 -14 -103 -102 -119 -155 -17 -55 -49 -256 -61 -380 -7 -70 -9 -75 -14 -40 -5 33 -7 24 -13 -50 -24 -286 -39 -452 -48 -545 -17 -159 -16 -159 58 -96 90 78 191 97 262 49 37 -26 60 -25 53 1 -3 12 -9 26 -13 32 -16 21 -68 288 -80 414 -21 218 -21 329 -3 548 10 127 14 216 8 221 -5 5 -18 5 -30 1z"></path>
            <path id="p8vMA9kHL"
                  d="M7754 5062 c-39 -33 -70 -94 -85 -164 -9 -39 -14 -48 -19 -34 -9 26 -34 -264 -26 -306 3 -18 -3 -166 -14 -328 -11 -162 -20 -305 -20 -317 0 -22 1 -22 47 7 26 17 63 35 83 40 52 15 146 12 187 -5 20 -8 38 -14 40 -12 2 2 -10 55 -27 118 -32 121 -62 290 -62 349 0 26 -2 30 -7 16 -18 -46 -24 40 -26 334 0 168 -5 311 -9 318 -11 18 -28 14 -62 -16z"></path>
            <path id="pFscf8eOw"
                  d="M9563 5042 c-33 -28 -84 -140 -99 -218 -7 -35 -8 -37 -14 -14 -5 20 -8 14 -14 -30 -34 -255 -62 -378 -85 -372 -6 1 -11 -5 -11 -13 0 -28 -56 -139 -99 -197 -23 -31 -56 -62 -73 -69 -28 -11 -36 -10 -77 12 -29 15 -54 39 -69 64 -22 39 -23 45 -19 230 3 127 11 220 23 280 16 81 19 87 25 55 5 -30 7 -31 8 -8 0 15 15 69 31 120 44 136 39 157 -25 110 -66 -47 -125 -111 -144 -156 -16 -35 -42 -129 -64 -231 -4 -17 -5 -16 -7 5 -2 22 -3 21 -12 -10 -5 -19 -11 -196 -12 -392 l-2 -358 107 0 c109 0 175 14 205 45 20 19 98 20 117 1 24 -25 89 -37 172 -34 l80 3 -3 115 c-4 131 18 293 48 355 42 87 98 493 88 635 -5 62 -19 101 -37 100 -3 0 -20 -13 -38 -28z"></path>
            <path id="p18SUUx127"
                  d="M7716 3935 c-52 -18 -106 -64 -133 -111 -12 -21 -27 -45 -33 -52 -20 -23 -60 -202 -60 -272 0 -88 21 -145 76 -207 63 -73 125 -113 175 -113 52 0 129 42 196 107 72 70 93 118 93 217 0 83 -23 267 -42 326 -13 44 -53 88 -95 106 -41 18 -126 17 -177 -1z"></path>
            <path id="phMTs3sD1"
                  d="M8344 3921 c-49 -22 -150 -114 -171 -156 -9 -16 -20 -33 -25 -36 -14 -9 -36 -120 -44 -220 -8 -107 4 -136 91 -218 153 -143 313 -113 430 79 50 84 61 128 46 198 -7 31 -19 71 -26 87 -7 17 -25 64 -39 106 -20 57 -37 86 -69 116 -66 63 -122 76 -193 44z"></path>
            <path id="p1HUt38TTN"
                  d="M9119 3855 c-38 -20 -146 -36 -205 -29 -75 9 -109 -12 -128 -79 -8 -28 -18 -72 -21 -96 -5 -27 -10 -39 -15 -31 -4 7 -8 -66 -9 -162 -1 -200 1 -205 85 -252 35 -20 61 -26 104 -26 32 0 60 4 62 10 4 13 141 60 176 60 16 0 55 -9 87 -20 104 -36 262 -23 316 26 54 48 67 168 40 359 -28 202 -48 225 -195 225 -63 0 -109 5 -133 15 -44 19 -130 19 -164 0z"></path>
            <path id="puLplCbMS"
                  d="M4940 5119 c-15 -26 -3 -178 12 -158 7 10 8 8 5 -8 -3 -13 -2 -23 2 -23 11 0 31 -239 31 -366 0 -184 -25 -468 -40 -459 -7 4 -30 -154 -23 -164 1 -2 18 6 38 18 58 34 118 26 179 -26 17 -14 39 -38 49 -54 29 -45 41 -36 34 24 -4 29 -13 149 -22 267 -26 376 -49 618 -55 575 -6 -39 -6 -39 -14 20 -10 78 -42 233 -54 266 -13 33 -92 109 -114 109 -10 0 -22 -9 -28 -21z"></path>
            <path id="pftZkTLlZ"
                  d="M4979 3936 c-42 -29 -70 -87 -98 -206 -11 -45 -24 -87 -30 -93 -11 -14 -41 -217 -41 -281 0 -117 28 -134 245 -144 190 -10 210 -5 219 46 8 52 7 228 -4 352 -7 89 -13 114 -40 165 -43 82 -94 142 -140 165 -51 26 -68 25 -111 -4z"></path>
            <path id="pfkMvPg0K"
                  d="M6588 5098 c-22 -24 -46 -57 -54 -74 -16 -39 -50 -223 -60 -330 -5 -53 -10 -71 -14 -54 -12 49 -19 -21 -54 -575 -8 -115 -12 -212 -10 -214 1 -2 27 22 56 53 43 47 63 59 107 71 52 13 55 13 89 -10 20 -14 37 -23 39 -21 5 5 -25 287 -38 361 -6 33 -12 143 -13 245 l-2 185 6 -170 6 -170 2 150 c2 143 25 451 38 501 3 13 3 40 0 59 -10 51 -46 48 -98 -7z m59 -310 c-2 -13 -4 -5 -4 17 -1 22 1 32 4 23 2 -10 2 -28 0 -40z"></path>
            <path id="p1AJjWyEFE"
                  d="M6533 3943 c-49 -27 -129 -126 -147 -180 -8 -26 -19 -79 -23 -118 -7 -67 -8 -68 -14 -30 -4 22 -7 -45 -6 -150 0 -133 5 -200 14 -224 l13 -34 174 6 c195 6 221 13 249 67 15 28 17 50 13 110 -7 106 -43 307 -60 338 -8 15 -22 52 -32 82 -25 81 -41 109 -77 130 -40 25 -63 25 -104 3z"></path>
            <path id="pgQLMssyH" d="M6423 3183 c15 -2 39 -2 55 0 15 2 2 4 -28 4 -30 0 -43 -2 -27 -4z"></path>
            <path id="pOxsr8EMQ"
                  d="M1984 5048 c-14 -22 -17 -174 -5 -279 20 -177 52 -352 72 -389 33 -63 52 -185 55 -355 l2 -160 87 -3 c75 -2 94 1 142 23 72 33 97 32 173 -7 61 -32 67 -33 173 -31 60 1 110 3 112 5 1 2 -2 39 -6 83 -5 44 -9 202 -8 350 0 191 -4 292 -14 345 -9 47 -15 64 -16 45 -2 -21 -9 -5 -26 57 -32 117 -54 157 -117 213 -90 79 -125 83 -111 10 8 -42 43 -129 54 -136 42 -26 82 -497 50 -591 -14 -41 -68 -94 -106 -104 -38 -9 -83 14 -113 58 -68 100 -91 143 -108 198 -10 32 -21 57 -25 54 -13 -8 -39 96 -59 241 -24 163 -29 187 -40 180 -5 -3 -14 11 -21 32 -23 71 -61 143 -82 158 -26 18 -53 19 -63 3z"></path>
            <path id="p4VFpWiSk"
                  d="M2331 3855 c-22 -10 -68 -15 -135 -15 l-102 0 -32 -33 c-46 -47 -65 -141 -66 -332 -1 -173 8 -202 79 -239 60 -31 200 -35 280 -7 81 29 111 27 214 -14 97 -39 179 -47 201 -20 7 8 18 15 24 15 18 1 65 47 76 75 24 63 -1 414 -30 423 -5 2 -10 13 -10 25 0 27 -35 87 -52 88 -7 1 -58 3 -113 4 -76 1 -113 7 -153 23 -61 25 -132 28 -181 7z"></path>
            <path id="p1Gv8CJ7Bn"
                  d="M1470 3835 c-59 -31 -111 -39 -155 -25 -74 24 -102 -6 -129 -136 -46 -225 -19 -370 76 -421 46 -24 156 -23 236 1 55 17 68 18 95 7 140 -58 208 -63 266 -22 74 53 88 247 33 459 -31 117 -54 162 -84 162 -7 0 -37 -9 -66 -20 -66 -25 -98 -25 -147 0 -50 25 -69 25 -125 -5z"></path>
            <path id="p8Uv9otnc" d="M1143 3455 c0 -27 2 -38 4 -22 2 15 2 37 0 50 -2 12 -4 0 -4 -28z"></path>
            <path id="pMm4LAW0R"
                  d="M5420 4970 c0 -51 28 -202 40 -214 20 -20 10 -533 -10 -521 -9 5 -24 -295 -15 -303 3 -3 22 2 41 13 54 29 122 25 167 -9 21 -16 39 -27 40 -25 2 2 0 69 -4 149 -18 380 -24 454 -29 415 -6 -37 -7 -35 -14 30 -21 184 -68 405 -86 405 -4 0 -21 23 -39 50 -28 43 -37 50 -62 48 -26 -2 -29 -6 -29 -38z"></path>
            <path id="p14hF0eqm5" d="M5454 4570 c0 -96 2 -136 3 -87 2 48 2 126 0 175 -1 48 -3 8 -3 -88z"></path>
            <path id="pk3OXmq6W"
                  d="M5488 3925 c-37 -21 -65 -70 -77 -141 -20 -109 -41 -337 -41 -445 0 -89 3 -108 18 -121 22 -19 139 -38 240 -38 114 0 118 7 128 177 5 104 3 144 -9 195 -8 34 -23 108 -33 163 -19 115 -49 183 -92 208 -36 21 -97 22 -134 2z"></path>
            <path id="pndOhfA3u"
                  d="M6125 4985 c-18 -19 -41 -55 -50 -80 -10 -24 -21 -42 -25 -40 -8 5 -19 -37 -39 -145 -11 -57 -34 -261 -48 -415 l-7 -90 -7 55 c-4 43 -6 31 -7 -56 -1 -61 -5 -152 -8 -202 -8 -101 -1 -111 48 -73 41 32 88 36 147 10 28 -12 53 -20 56 -18 4 5 -11 247 -26 429 -14 156 0 408 31 556 10 47 9 59 -4 80 -9 13 -19 24 -23 24 -3 0 -20 -16 -38 -35z"></path>
            <path id="p1CTqlB44X"
                  d="M6035 3941 c-52 -16 -108 -89 -124 -161 -22 -102 -41 -293 -41 -420 0 -133 1 -137 25 -158 20 -18 38 -22 88 -22 94 1 236 24 254 43 14 13 17 44 19 164 2 81 -1 135 -5 118 -6 -25 -8 -16 -14 45 -14 140 -40 285 -59 322 -25 51 -94 84 -143 69z"></path>
            <path id="pUGJdU41v"
                  d="M9780 3828 c-8 -18 -19 -40 -25 -48 -7 -8 -22 -53 -35 -100 -27 -103 -31 -308 -7 -375 14 -41 59 -80 106 -92 32 -8 119 10 188 39 52 21 52 21 114 3 72 -22 181 -25 227 -6 31 13 82 69 82 90 0 6 4 11 9 11 5 0 15 25 22 56 14 61 3 200 -21 264 -7 19 -19 54 -27 78 -22 64 -38 75 -92 67 -25 -4 -50 -11 -55 -16 -6 -5 -19 -9 -30 -9 -17 0 -18 2 -6 10 12 8 11 10 -8 10 -12 0 -45 11 -72 25 -60 30 -79 31 -130 5 -22 -11 -50 -20 -64 -20 -14 0 -48 9 -76 20 -70 28 -85 26 -100 -12z"></path>
            <path id="p16P35CGSP"
                  d="M453 4640 c-46 -28 -55 -70 -34 -164 9 -41 23 -83 31 -93 23 -26 62 -168 67 -243 3 -36 -2 -125 -12 -198 -17 -136 -13 -168 20 -156 7 3 16 1 19 -5 13 -20 92 -23 153 -6 32 9 61 21 64 26 3 5 40 15 83 21 43 7 81 18 83 25 3 7 -2 34 -10 60 -9 26 -20 78 -26 116 -27 166 -34 203 -43 214 -5 6 -18 49 -29 95 -22 92 -39 126 -107 209 -87 106 -186 144 -259 99z"></path>
            <path id="pAfFatOiF"
                  d="M850 3800 c-19 -4 -66 -20 -105 -34 -81 -29 -122 -32 -191 -11 l-49 14 -32 -31 c-46 -44 -53 -80 -53 -256 l0 -153 44 -47 c44 -46 44 -47 120 -50 52 -3 92 1 126 12 64 21 70 21 134 -11 51 -25 58 -26 94 -14 39 13 122 83 141 120 28 52 -3 224 -63 354 -53 115 -73 128 -166 107z"></path>
            <path id="pYikHCBCX"
                  d="M11055 4641 c-56 -27 -136 -106 -170 -168 -15 -29 -31 -50 -36 -48 -11 8 -18 -21 -54 -219 -18 -98 -37 -181 -42 -185 -12 -8 -46 -169 -38 -181 3 -6 19 -10 35 -10 47 0 133 -21 165 -40 43 -26 93 -33 145 -20 25 6 50 12 56 13 28 6 44 31 44 67 0 21 -4 40 -10 42 -15 5 -33 162 -28 249 3 49 11 87 22 103 23 36 86 259 86 307 0 51 -13 75 -50 94 -39 20 -76 19 -125 -4z"></path>
            <path id="pvpbtiGQJ"
                  d="M10670 3769 c-46 -50 -61 -91 -90 -237 -24 -122 -25 -152 -6 -195 17 -43 89 -104 139 -119 36 -11 43 -9 87 15 54 31 78 33 135 12 22 -8 72 -14 111 -15 83 0 128 23 156 80 20 40 23 153 9 306 -13 135 -36 160 -125 137 -67 -18 -126 -12 -208 21 -36 15 -89 29 -117 33 -50 6 -51 5 -91 -38z"></path>
            <path id="pwtlBbGdq" d="M10543 3415 c0 -27 2 -38 4 -22 2 15 2 37 0 50 -2 12 -4 0 -4 -28z"></path>
            <path id="pfauLx9BB"
                  d="M4145 2946 c-50 -22 -142 -120 -175 -188 -29 -58 -32 -69 -27 -137 2 -40 9 -76 15 -80 14 -9 60 -169 68 -237 4 -30 10 -54 14 -54 4 0 20 -21 36 -46 31 -48 75 -78 136 -89 28 -5 50 -1 91 18 44 20 58 33 75 68 11 24 24 71 27 104 4 33 13 95 21 139 8 43 14 80 14 83 0 2 4 2 9 -1 11 -7 31 80 31 137 0 46 -5 56 -68 146 -44 63 -96 116 -135 138 -29 16 -94 16 -132 -1z"></path>
            <path id="pUBwkYgxc"
                  d="M4055 2168 c-8 -24 -13 -366 -5 -430 4 -35 22 -171 39 -303 44 -337 52 -470 41 -622 -11 -143 -8 -163 23 -163 17 0 28 13 50 58 15 32 27 63 27 68 0 5 7 23 16 39 12 23 21 97 35 300 10 149 22 329 28 400 6 72 13 166 17 210 3 44 14 109 24 145 17 62 36 270 25 270 -3 0 -19 -7 -34 -14 -15 -8 -49 -20 -74 -27 -61 -15 -146 10 -182 53 -17 20 -27 25 -30 16z"></path>
            <path id="pGzdVH9Yf"
                  d="M7342 2957 c-63 -23 -109 -72 -204 -216 -12 -17 -18 -46 -18 -82 0 -53 23 -153 40 -174 5 -6 16 -65 26 -130 19 -138 41 -188 94 -215 56 -28 92 -32 140 -15 81 29 136 102 156 209 19 97 55 217 64 211 12 -7 20 33 20 97 0 47 -6 69 -35 120 -44 81 -136 172 -194 193 -50 17 -46 17 -89 2z"></path>
            <path id="p1G3Ygv4d6"
                  d="M789 2903 c-67 -46 -108 -49 -164 -10 -58 40 -112 38 -146 -6 -41 -51 -57 -88 -70 -162 -17 -100 0 -191 46 -235 32 -31 37 -33 86 -27 30 4 61 14 73 26 36 32 90 42 147 25 27 -8 47 -19 44 -24 -4 -6 18 -10 54 -10 69 0 113 21 151 72 22 28 25 43 24 108 0 63 -6 88 -35 155 -56 129 -115 154 -210 88z"></path>
            <path id="p18QtCRWFc"
                  d="M1503 2917 c-18 -7 -43 -21 -55 -32 -25 -22 -97 -26 -190 -10 -47 8 -48 7 -88 -36 -57 -62 -75 -126 -73 -268 2 -138 7 -147 79 -134 51 10 80 5 154 -22 60 -22 123 -14 197 25 55 30 62 31 136 25 77 -7 77 -7 106 23 40 44 55 107 47 200 -3 42 -11 94 -16 114 -14 48 -55 97 -97 114 -39 17 -156 17 -200 1z"></path>
            <path id="pLGT25PKZ"
                  d="M635 2474 c-47 -23 -83 -34 -113 -34 -43 0 -44 -1 -38 -27 12 -56 45 -281 56 -384 6 -58 11 -200 9 -315 -1 -167 1 -216 13 -244 23 -53 40 -64 82 -50 35 11 56 32 100 101 31 48 34 63 56 283 22 212 38 318 50 311 4 -2 13 28 20 68 15 89 57 237 72 254 17 20 6 24 -75 26 -42 1 -81 8 -90 15 -38 32 -71 31 -142 -4z"></path>
            <path id="p17qrIS6Hr"
                  d="M1575 2441 c-12 -5 -43 -23 -70 -40 -41 -26 -59 -31 -110 -31 -49 0 -68 5 -95 25 -33 25 -96 34 -134 19 -17 -7 -22 -44 -7 -59 15 -18 40 -129 52 -234 12 -111 8 -215 -16 -385 -21 -145 -19 -224 5 -263 37 -62 59 -43 90 77 43 171 42 167 50 144 5 -12 2 -65 -6 -120 -18 -133 -18 -199 2 -218 29 -29 40 -20 76 67 13 31 27 55 31 51 15 -16 47 170 54 321 l7 140 23 -95 c25 -102 23 -136 -13 -331 -16 -86 -18 -119 -6 -119 14 0 89 84 107 120 10 19 26 45 36 58 24 32 47 137 59 279 14 160 29 576 21 584 -10 11 -135 19 -156 10z"></path>
            <path id="p1ACeOYreg" d="M1753 2390 c0 -25 2 -35 4 -22 2 12 2 32 0 45 -2 12 -4 2 -4 -23z"></path>
            <path id="p10rjGpI9u" d="M1378 2383 c12 -2 30 -2 40 0 9 3 -1 5 -23 4 -22 0 -30 -2 -17 -4z"></path>
            <path id="pSORui7N8"
                  d="M490 1782 c-12 -53 -29 -106 -36 -118 -6 -11 -15 -45 -19 -76 -7 -52 -5 -57 25 -92 38 -42 43 -44 57 -13 13 27 18 383 6 390 -5 3 -20 -38 -33 -91z"></path>
            <path id="pS0y5Qep3"
                  d="M2895 2921 c-44 -21 -100 -76 -135 -134 -20 -34 -22 -47 -17 -130 4 -76 11 -108 42 -184 40 -102 105 -186 162 -209 39 -17 126 -18 156 -3 44 22 94 86 111 140 10 30 26 70 37 90 26 50 39 125 30 176 -10 51 -75 123 -194 214 -88 66 -121 73 -192 40z"></path>
            <path id="pcLWheCHu"
                  d="M2354 2911 c-23 -10 -45 -24 -48 -30 -4 -6 -30 -11 -58 -11 -40 0 -57 5 -76 23 -18 17 -35 22 -77 22 -49 0 -56 -3 -106 -50 -30 -27 -60 -60 -67 -73 -32 -57 -33 -213 -2 -307 6 -18 33 -47 66 -73 44 -34 66 -44 107 -48 29 -3 83 -12 120 -21 45 -10 86 -13 120 -9 29 4 81 9 117 12 115 9 128 20 165 134 10 30 27 67 38 81 21 29 35 137 23 182 -8 35 -101 134 -146 157 -58 30 -127 34 -176 11z"></path>
            <path id="pHzKX9gt1"
                  d="M2014 2344 c5 -10 12 -31 16 -45 4 -14 15 -39 23 -56 27 -51 39 -229 27 -383 -5 -74 -11 -144 -11 -155 -1 -11 -5 0 -9 25 -7 43 -7 43 -8 9 -2 -29 -25 -202 -49 -359 -12 -79 72 -110 101 -37 8 18 17 72 20 122 4 49 11 94 16 100 4 5 20 51 34 100 39 138 61 184 89 185 13 0 7 -23 -12 -44 -40 -45 -43 -82 -15 -160 14 -39 30 -93 36 -121 10 -47 6 -228 -7 -305 -7 -42 7 -69 27 -53 24 21 87 156 108 233 11 41 29 117 41 168 18 82 19 96 6 110 -8 10 -17 30 -21 46 -4 16 -16 48 -27 70 -22 45 -23 56 -9 56 6 0 15 -12 22 -27 6 -16 21 -51 35 -79 29 -64 41 -126 51 -276 5 -69 14 -123 22 -132 18 -23 47 -20 61 7 31 56 30 397 -3 835 l-12 164 -30 -6 c-139 -23 -250 -29 -304 -17 -31 7 -90 16 -130 21 -40 5 -78 12 -84 16 -8 5 -9 1 -4 -12z"></path>
            <path id="pdcqFvn08"
                  d="M3179 2283 c-47 -56 -178 -70 -267 -28 -64 30 -66 30 -57 8 28 -72 57 -427 63 -801 7 -337 8 -354 27 -368 30 -22 48 -13 72 34 12 24 26 48 31 55 17 21 38 147 88 525 3 23 9 40 15 37 5 -4 9 -3 9 2 3 64 39 488 45 526 5 31 -6 35 -26 10z"></path>
            <path id="pKRPn1Ifk" d="M2243 1205 c0 -22 2 -30 4 -17 2 12 2 30 0 40 -3 9 -5 -1 -4 -23z"></path>
            <path id="p1BAdHO1yh"
                  d="M3525 2926 c-38 -16 -107 -91 -134 -145 -31 -60 -29 -205 4 -331 24 -89 29 -98 78 -146 95 -93 216 -100 275 -17 11 16 34 65 52 111 17 45 36 82 41 82 37 0 56 182 27 251 -22 50 -135 169 -183 190 -47 22 -117 24 -160 5z"></path>
            <path id="pDGO4LTf2"
                  d="M3453 2273 c-17 -6 -16 -47 1 -86 8 -18 19 -66 25 -107 39 -279 45 -579 16 -818 -17 -137 -17 -158 -4 -194 8 -23 21 -46 30 -51 27 -17 66 1 90 40 13 21 26 40 30 43 14 10 29 95 29 170 0 87 20 256 50 420 24 136 23 132 34 148 14 23 35 422 22 422 -3 0 -26 -11 -52 -25 -29 -15 -63 -25 -89 -25 -50 0 -121 23 -150 49 -11 10 -26 16 -32 14z"></path>
            <path id="p9cjWnvmz"
                  d="M7915 2926 c-45 -20 -172 -153 -187 -195 -19 -53 -15 -178 6 -223 10 -21 22 -38 26 -38 4 0 14 -17 23 -37 68 -162 68 -162 111 -183 23 -11 58 -20 77 -20 82 1 197 90 219 170 45 167 53 306 21 376 -21 45 -113 141 -149 155 -34 13 -112 10 -147 -5z"></path>
            <path id="pwOfV78Oe"
                  d="M8101 2253 c-72 -49 -164 -56 -226 -18 -22 13 -44 25 -49 25 -5 0 -6 -71 -3 -172 7 -173 20 -285 37 -316 8 -15 39 -200 55 -325 4 -26 10 -107 15 -181 7 -119 11 -139 35 -180 58 -100 119 -101 145 -4 9 32 8 67 -6 162 -21 146 -24 491 -5 666 19 179 33 273 43 294 6 10 14 31 18 47 10 35 -9 36 -59 2z"></path>
            <path id="pqWhWxnA3"
                  d="M8548 2910 c-25 -16 -84 -66 -131 -111 -95 -88 -114 -127 -103 -204 8 -52 38 -135 46 -130 4 2 13 -21 19 -51 14 -60 61 -123 112 -150 35 -18 120 -18 162 0 57 24 136 132 167 231 7 22 17 46 23 53 6 8 13 54 15 102 4 84 3 91 -26 142 -78 136 -188 182 -284 118z"></path>
            <path id="pFwoGnQrX"
                  d="M9113 2920 c-56 -13 -133 -77 -174 -144 -29 -47 -26 -148 6 -212 14 -27 34 -77 46 -112 26 -78 49 -95 144 -104 38 -3 97 -9 130 -13 43 -5 78 -2 121 9 34 9 78 16 97 16 41 0 78 12 104 35 10 8 33 28 51 43 41 34 62 106 62 215 0 97 -16 137 -83 204 -69 71 -140 82 -198 32 -28 -24 -110 -26 -133 -4 -38 38 -104 52 -173 35z"></path>
            <path id="p3IJvJDQv" d="M9333 2883 c9 -2 25 -2 35 0 9 3 1 5 -18 5 -19 0 -27 -2 -17 -5z"></path>
            <path id="pJyeaN3Wp"
                  d="M9550 2349 c-14 -4 -42 -7 -63 -8 -22 -1 -64 -8 -95 -17 -57 -17 -85 -16 -272 5 -46 6 -86 8 -88 6 -10 -9 -32 -455 -34 -689 -3 -283 2 -317 50 -324 34 -5 48 43 56 183 7 132 16 176 52 249 13 28 24 55 24 62 0 13 28 39 35 32 3 -3 -5 -29 -18 -59 -13 -30 -27 -67 -31 -83 -6 -23 -9 -27 -17 -15 -14 23 -11 -71 5 -122 8 -24 29 -100 47 -169 24 -95 41 -139 71 -182 21 -32 43 -58 48 -58 14 0 16 39 7 115 -5 39 -7 122 -4 185 4 93 9 123 27 160 12 24 25 60 27 80 5 35 -17 103 -37 115 -5 3 -10 13 -10 21 0 11 4 12 19 4 21 -11 51 -82 81 -196 11 -41 25 -82 30 -92 5 -9 12 -56 15 -103 8 -101 30 -149 70 -149 17 0 29 9 39 28 12 24 11 45 -7 172 -11 80 -25 148 -30 152 -24 15 -45 361 -29 483 6 45 22 105 37 138 31 68 30 86 -5 76z"></path>
            <path id="psxRdef6Q"
                  d="M8394 2258 c4 -24 15 -146 26 -273 12 -126 25 -243 31 -260 6 -16 23 -122 40 -234 38 -260 42 -277 85 -355 30 -55 39 -64 53 -56 45 24 46 26 53 404 6 329 18 514 47 721 6 38 9 71 7 73 -2 1 -20 -7 -40 -19 -40 -23 -133 -36 -190 -25 -20 4 -52 20 -70 36 -19 17 -37 30 -40 30 -4 0 -5 -19 -2 -42z"></path>
            <path id="p9CxPu55t"
                  d="M9944 2930 c-108 -15 -164 -110 -164 -279 0 -77 16 -129 51 -164 29 -28 31 -29 104 -22 72 7 77 6 137 -26 53 -28 73 -33 129 -33 45 0 75 5 93 17 28 19 80 24 143 13 60 -11 66 6 61 163 -3 100 -8 135 -25 171 -25 55 -75 110 -100 110 -15 0 -16 2 -3 10 11 7 6 10 -20 10 -24 0 -31 -3 -21 -9 11 -7 4 -12 -25 -20 -60 -17 -118 -14 -145 8 -57 44 -134 62 -215 51z"></path>
            <path id="p8iEirlUk" d="M10178 2383 c12 -2 32 -2 45 0 12 2 2 4 -23 4 -25 0 -35 -2 -22 -4z"></path>
            <path id="pzjklXRYk"
                  d="M10682 2908 c-50 -39 -92 -132 -99 -224 -7 -76 20 -145 66 -172 17 -9 31 -20 31 -24 0 -11 118 -10 124 1 4 5 27 16 53 25 54 18 113 8 149 -25 14 -13 42 -22 75 -26 48 -5 57 -2 81 20 38 35 51 95 45 202 -7 132 -43 212 -104 235 -27 11 -83 -4 -113 -30 -35 -30 -85 -36 -116 -14 -102 74 -132 78 -192 32z"></path>
            <path id="p13mLxHeqR"
                  d="M10886 2502 c-11 -2 -26 -10 -33 -17 -17 -17 -93 -29 -138 -22 -43 7 -49 -2 -30 -47 9 -20 26 -78 40 -127 13 -50 28 -96 33 -102 13 -16 39 -168 52 -297 5 -58 14 -149 19 -204 6 -55 16 -106 24 -115 7 -9 21 -35 31 -58 22 -49 49 -77 91 -93 71 -27 112 49 101 183 -19 213 10 626 54 777 16 54 14 57 -46 63 -30 3 -72 16 -92 28 -45 26 -80 37 -106 31z"></path>
            <path id="pxZJKTBBy"
                  d="M11094 1685 c4 -103 10 -194 13 -201 8 -20 30 -17 54 7 20 20 21 29 17 109 -4 60 -12 101 -26 131 -12 24 -26 63 -32 86 -6 23 -16 45 -22 49 -8 5 -9 -43 -4 -181z"></path>
            <path id="pAlxNe0g6"
                  d="M5198 2912 c-39 -10 -91 -62 -112 -113 -10 -24 -24 -56 -32 -71 -18 -34 -18 -131 0 -171 17 -40 61 -195 75 -267 7 -30 18 -68 26 -84 8 -15 15 -33 15 -38 0 -5 9 -31 21 -58 15 -35 36 -60 77 -91 51 -39 63 -43 112 -43 51 -1 61 3 115 45 88 66 118 120 140 253 4 24 10 35 14 27 4 -7 13 20 21 61 16 95 56 233 75 262 8 12 19 45 24 72 13 66 -2 115 -55 173 l-42 46 -223 2 c-123 1 -236 -2 -251 -5z"></path>
            <path id="piGGA99ZC"
                  d="M5587 2067 c-9 -24 -111 -95 -155 -108 -63 -18 -131 0 -193 52 -28 23 -49 35 -49 27 0 -22 40 -414 56 -548 8 -69 19 -213 25 -320 10 -190 23 -295 38 -304 20 -13 50 12 96 77 28 39 56 87 63 106 7 19 17 98 23 175 12 166 41 378 62 456 9 30 23 125 32 210 9 85 19 163 21 173 6 20 -11 24 -19 4z"></path>
            <path id="p1E4eZ96Zu"
                  d="M6082 2920 l-153 -6 -25 -29 c-65 -77 -80 -161 -43 -243 12 -25 34 -97 50 -160 16 -63 35 -128 43 -145 8 -18 22 -68 30 -112 19 -96 49 -142 131 -205 54 -41 65 -45 115 -45 57 1 57 1 137 69 44 37 88 130 108 226 23 110 57 230 65 230 4 0 13 27 20 59 13 62 5 226 -9 202 -5 -8 -14 5 -25 33 -25 65 -77 114 -129 120 -75 10 -159 11 -315 6z"></path>
            <path id="ptmdID3My"
                  d="M6004 2053 c3 -16 12 -89 21 -163 8 -74 22 -157 30 -185 18 -64 42 -236 55 -401 17 -210 24 -243 66 -314 37 -65 94 -130 111 -130 24 0 37 63 44 215 4 88 12 177 18 199 5 21 12 89 16 150 8 133 32 408 45 508 16 127 18 125 -41 78 -97 -76 -186 -76 -287 2 -30 23 -56 48 -59 55 -10 25 -25 13 -19 -14z"></path>
            <path id="pBP3WeSJt" d="M6343 1035 c0 -38 2 -53 4 -32 2 20 2 52 0 70 -2 17 -4 1 -4 -38z"></path>
            <path id="p64L71Yrm"
                  d="M4705 2899 c-158 -19 -159 -23 -125 -498 12 -177 28 -219 95 -251 37 -18 49 -20 84 -10 39 10 87 50 118 96 8 13 25 85 38 160 13 75 28 139 33 143 5 3 18 68 28 144 17 133 17 140 0 172 -10 18 -28 36 -40 38 -49 12 -157 15 -231 6z"></path>
            <path id="pJibRDP95" d="M4543 2720 c0 -47 2 -66 4 -42 2 23 2 61 0 85 -2 23 -4 4 -4 -43z"></path>
            <path id="p1Hlrs6ZnB"
                  d="M4596 1737 c1 -350 4 -452 17 -536 17 -104 42 -165 84 -203 18 -17 20 -17 41 2 17 16 22 32 22 68 0 27 -5 53 -12 60 -8 8 -12 54 -14 129 l-1 118 7 -90 7 -90 0 127 c1 70 3 130 6 135 3 5 10 53 16 108 18 163 60 427 75 470 21 60 29 125 15 125 -7 0 -36 -12 -65 -26 -63 -31 -101 -28 -158 11 -20 14 -38 25 -39 25 -1 0 -2 -195 -1 -433z"></path>
            <path id="p5f74Ltz5"
                  d="M6750 2900 c-14 -4 -40 -8 -57 -9 -19 -1 -42 -10 -54 -22 -20 -20 -21 -29 -16 -113 3 -50 13 -116 22 -146 9 -30 27 -116 40 -190 13 -74 28 -146 33 -160 16 -43 88 -108 130 -120 45 -12 63 -7 109 26 44 33 61 94 69 249 4 72 13 147 20 169 20 55 18 189 -3 234 -28 63 -44 71 -145 82 -106 11 -114 11 -148 0z"></path>
            <path id="pkWkCicy4"
                  d="M6975 2150 c-41 -45 -114 -48 -187 -7 -21 11 -41 18 -45 14 -3 -4 1 -33 10 -64 8 -32 29 -152 46 -268 17 -115 38 -246 47 -290 19 -90 29 -332 18 -415 -7 -50 -8 -52 -15 -25 -7 30 -7 30 -8 -7 -1 -37 24 -94 46 -102 7 -3 28 15 47 39 43 57 63 157 77 392 10 174 2 753 -11 753 -4 0 -15 -9 -25 -20z"></path>
        </g>
    </g>
</svg>